<?xml version="1.0" encoding="utf-8"?>
<!-- Generator: Adobe Illustrator 21.0.0, SVG Export Plug-In . SVG Version: 6.00 Build 0)  -->
<svg version="1.1" id="Layer_1" xmlns="http://www.w3.org/2000/svg" xmlns:xlink="http://www.w3.org/1999/xlink" x="0px" y="0px"
	 viewBox="0 0 5000 5000" style="enable-background:new 0 0 5000 5000;" xml:space="preserve">
<style type="text/css">
	.st0{fill:none;stroke:#000000;stroke-miterlimit:10;}
	.st1{fill:#B3B3B3;}
	.st2{fill:none;stroke:#999999;stroke-width:5;stroke-miterlimit:10;}
	.st3{fill:#999999;}
	.st4{fill:#FFFFFF;}
	.st5{font-family:'Roboto-Light';}
	.st6{font-size:66px;}
	.st7{font-size:50px;}
	.st8{fill:none;stroke:#3498DB;stroke-width:6;stroke-miterlimit:10;}
</style>
<rect x="1650.7" y="172.7" class="st0" width="1080" height="1920"/>
<g id="Arrow">
	<line class="st1" x1="1650.7" y1="1132.7" x2="1314.5" y2="1132.7"/>
	<g>
		<line class="st2" x1="1615.4" y1="1132.7" x2="1314.5" y2="1132.7"/>
		<g>
			<polygon class="st3" points="1650.7,1132.7 1601,1112.4 1612.8,1132.7 1601,1153 			"/>
		</g>
	</g>
</g>
<rect x="234.5" y="172.7" class="st0" width="1080" height="1920"/>
<text transform="matrix(1 0 0 1 459.1552 1311.7001)" class="st4 st5 st6">WEB DESIGN STUDIO</text>
<text transform="matrix(1 0 0 1 549.9966 582.6272)" class="st4 st5 st7">www.craneglee.com</text>
<g>
	<path class="st8" d="M434.5,727.2h-70.9c-5.1,0-9.2-4.1-9.2-9.2v-74.6c0-5.1,4.2-9.3,9.3-9.2l74,0.5c5.1,0,9.2,4.2,9.2,9.2v82.6
		l88.9-88.2c2.3-2.3,5.4-3.6,8.7-3.6h78.2l0,0c4.9,0,9,3.9,9.2,8.9l0.1,1.9"/>
	<path class="st8" d="M816.8,717.9L816.8,717.9c0,5.1-4.2,9.2-9.2,9.2l-74.1-0.5c-5,0-9.1-4.1-9.1-9.2v-73.6c0-5-4.1-9.1-9.1-9.2
		l-74.1-0.5c-5.1,0-9.2,4.1-9.2,9.2v74.7c0,5.1-4.2,9.2-9.2,9.2l-74.1-0.5c-5,0-9.1-4.1-9.1-9.2v-36.5h83.2"/>
	<path class="st8" d="M734.1,680.8l82.7,0.2v-34.5c0-6.8-5.6-12.4-12.4-12.3l-70.1,0.2h-0.7c-5.3,0-9.6,4.3-9.6,9.6v0"/>
	<path class="st8" d="M1011.5,680.8l82.7,0.2v-34.5c0-6.8-5.6-12.4-12.4-12.3l-57.8,0.1c-6.8,0-12.3,5.5-12.3,12.3v67.6
		c0,6.8,5.5,12.3,12.3,12.3h153.5c7,0,12.6-5.8,12.3-12.9l-0.1-1.9"/>
	<path class="st8" d="M1107.3,634.2l70.1-0.2c6.8,0,12.4,5.5,12.4,12.3v34.5l-82.7-0.2v33.5c0,6.8,5.4,12.3,12.2,12.3l0,0"/>
	<path class="st8" d="M1028.5,726.5l-91.4,0.6c-6.9,0.1-12.4-5.5-12.4-12.3V647c0-6.8-5.5-12.3-12.3-12.3h-70.9
		c-6.8,0-12.3,5.5-12.3,12.3v67.7c0,6.9,5.6,12.4,12.4,12.3l58.6-0.5c6.8-0.1,12.2-5.6,12.2-12.3v-21c0-6.8-5.5-12.3-12.3-12.3
		h-21.6v10"/>
</g>
</svg>
