<svg id="Layer_1" data-name="Layer 1" xmlns="http://www.w3.org/2000/svg" viewBox="0 0 274.03 35.08"><defs><style>.cls-1{fill:none;stroke:#3498db;stroke-miterlimit:10;stroke-width:3px;}</style></defs><title>Logo-text</title><path class="cls-1" d="M211,196H188a3,3,0,0,1-3-3V168.81a3,3,0,0,1,3-3l24,.17a3,3,0,0,1,3,3v26.81l28.83-28.62a4,4,0,0,1,2.82-1.16H272a3,3,0,0,1,3,2.87l0,.63" transform="translate(-183.5 -164.3)"/><path class="cls-1" d="M335,193h0a3,3,0,0,1-3,3l-24-.17a3,3,0,0,1-3-3V169a3,3,0,0,0-3-3l-24-.17a3,3,0,0,0-3,3V193a3,3,0,0,1-3,3l-24-.17a3,3,0,0,1-3-3V181h27" transform="translate(-183.5 -164.3)"/><path class="cls-1" d="M308.17,180.94,335,181V169.8a4,4,0,0,0-4-4l-22.75.06H308a3.1,3.1,0,0,0-3.1,3.1h0" transform="translate(-183.5 -164.3)"/><path class="cls-1" d="M398.17,180.94,425,181V169.8a4,4,0,0,0-4-4l-18.76,0a4,4,0,0,0-4,4v21.94a4,4,0,0,0,4,4H452a4,4,0,0,0,4-4.17l0-.62" transform="translate(-183.5 -164.3)"/><path class="cls-1" d="M429.24,165.86,452,165.8a4,4,0,0,1,4,4V181l-26.83-.06v10.88a4,4,0,0,0,4,4h0" transform="translate(-183.5 -164.3)"/><path class="cls-1" d="M403.67,195.78,374,196a4,4,0,0,1-4-4V170a4,4,0,0,0-4-4H343a4,4,0,0,0-4,4v22a4,4,0,0,0,4,4l19-.15a4,4,0,0,0,4-4V185a4,4,0,0,0-4-4h-7v3.25" transform="translate(-183.5 -164.3)"/></svg>