<svg xmlns="http://www.w3.org/2000/svg" viewBox="0 0 15.13 20.36"><defs><style>.cls-1{fill:#fff;}</style></defs><title>tehBGmdpi</title><g id="Layer_2" data-name="Layer 2"><g id="Layer_1-2" data-name="Layer 1"><path class="cls-1" d="M5.93,7.31l-1.77-1A9.94,9.94,0,0,1,7.51,2.62L6.33,1,6.46.88,7.64,2.57A10,10,0,0,0,4.24,6.24L6,7.21A8.23,8.23,0,0,1,7.7,5l.51.55-.07.06-.5-.52A8.19,8.19,0,0,0,5.93,7.31Z"/><ellipse class="cls-1" cx="6.4" cy="0.92" rx="0.42" ry="0.08" transform="translate(0.61 3.79) rotate(-34.55)"/><path class="cls-1" d="M7.62,2.65c-.16.11-.31.17-.34.13s.08-.15.24-.26.32-.16.34-.12S7.77,2.55,7.62,2.65Z"/><ellipse class="cls-1" cx="8.17" cy="5.56" rx="0.21" ry="0.07" transform="translate(-1.6 7.05) rotate(-42.92)"/><ellipse class="cls-1" cx="4.2" cy="6.28" rx="0.32" ry="0.08" transform="translate(-3.34 6.81) rotate(-60.24)"/><ellipse class="cls-1" cx="5.95" cy="7.26" rx="0.26" ry="0.08" transform="translate(-3.3 8.89) rotate(-60.67)"/><ellipse class="cls-1" cx="7.65" cy="5.06" rx="0.17" ry="0.05" transform="translate(-1.36 6.77) rotate(-44.25)"/><path class="cls-1" d="M9.32,10.29,7.41,9.68A6.42,6.42,0,0,1,8.88,7L7.38,5.66l.07-.07L9,7a6.38,6.38,0,0,0-1.5,2.61l1.85.61A4.58,4.58,0,0,1,10,8.88l.61.44,0,0-.59-.41A4.58,4.58,0,0,0,9.32,10.29Z"/><ellipse class="cls-1" cx="7.42" cy="5.62" rx="0.27" ry="0.08" transform="translate(-1.74 7.28) rotate(-47.41)"/><ellipse class="cls-1" cx="8.92" cy="7.02" rx="0.21" ry="0.08" transform="matrix(0.68, -0.73, 0.73, 0.68, -2.29, 8.78)"/><ellipse class="cls-1" cx="10.55" cy="9.33" rx="0.1" ry="0.07" transform="translate(-3.18 12.5) rotate(-54.5)"/><ellipse class="cls-1" cx="7.42" cy="9.65" rx="0.2" ry="0.08" transform="translate(-4.05 13.7) rotate(-71.88)"/><ellipse class="cls-1" cx="9.32" cy="10.27" rx="0.14" ry="0.08" transform="translate(-3.27 16.07) rotate(-72.48)"/><ellipse class="cls-1" cx="9.95" cy="8.93" rx="0.09" ry="0.05" transform="translate(-3.05 12.07) rotate(-55.47)"/><path class="cls-1" d="M6.21,11.86h-2A10.2,10.2,0,0,1,5,7.66L3.15,6.82,3.2,6.7l1.87.88a10.14,10.14,0,0,0-.83,4.18H6.18a8.36,8.36,0,0,1,.3-2.36l.71.22,0,.08L6.49,9.5A8.27,8.27,0,0,0,6.21,11.86Z"/><ellipse class="cls-1" cx="3.18" cy="6.76" rx="0.34" ry="0.08" transform="translate(-4.29 6.75) rotate(-64.79)"/><ellipse class="cls-1" cx="5.02" cy="7.62" rx="0.28" ry="0.08" transform="translate(-4.01 8.9) rotate(-64.65)"/><ellipse class="cls-1" cx="7.17" cy="9.67" rx="0.17" ry="0.07" transform="translate(-4.16 13.74) rotate(-73.18)"/><path class="cls-1" d="M4.3,11.82c0,.15,0,.28-.07.28s-.09-.12-.09-.28,0-.29.08-.29S4.29,11.66,4.3,11.82Z"/><ellipse class="cls-1" cx="6.2" cy="11.81" rx="0.08" ry="0.23" transform="translate(-0.14 0.07) rotate(-0.68)"/><ellipse class="cls-1" cx="6.49" cy="9.49" rx="0.14" ry="0.05" transform="translate(-4.47 12.97) rotate(-73.29)"/><path class="cls-1" d="M3,19.14l0,0a14,14,0,0,1-1.4-3l-.8.28a15.3,15.3,0,0,1,.1-9.86L2,7A11.64,11.64,0,0,1,8.5.17v0A11.62,11.62,0,0,0,2,7.12L.85,6.68a15.26,15.26,0,0,0-.1,9.55l.8-.27A14.18,14.18,0,0,0,3,19.14Z"/><path class="cls-1" d="M8.11.36s.14-.15.36-.25S8.89,0,8.91,0s-.15.14-.37.24S8.14.4,8.11.36Z"/><path class="cls-1" d="M1.9,7.36s0-.19,0-.38.17-.33.21-.31,0,.19-.06.38S1.94,7.37,1.9,7.36Z"/><path class="cls-1" d="M3.12,19.36s-.13-.08-.22-.22-.13-.29-.1-.31.13.09.21.23S3.15,19.34,3.12,19.36Z"/><ellipse class="cls-1" cx="0.88" cy="6.55" rx="0.4" ry="0.08" transform="translate(-5.58 5.14) rotate(-70.06)"/><ellipse class="cls-1" cx="0.78" cy="16.35" rx="0.08" ry="0.41" transform="translate(-4.98 1.03) rotate(-17.87)"/><ellipse class="cls-1" cx="1.56" cy="16.08" rx="0.05" ry="0.24" transform="translate(-4.87 1.26) rotate(-17.91)"/><path class="cls-1" d="M8.36,15.58l0,0A7.23,7.23,0,0,1,7.62,14l-.8.28a8.31,8.31,0,0,1,.05-5.37L8,9.39A5.84,5.84,0,0,1,11.27,6V6A5.82,5.82,0,0,0,8,9.47L6.88,9a8.28,8.28,0,0,0-.05,5.19l.8-.27A7.41,7.41,0,0,0,8.36,15.58Z"/><path class="cls-1" d="M11.08,6.08s0-.11.16-.16.22-.05.24,0-.06.11-.17.16S11.1,6.12,11.08,6.08Z"/><ellipse class="cls-1" cx="8.03" cy="9.41" rx="0.18" ry="0.08" transform="translate(-3.55 13.76) rotate(-70.08)"/><ellipse class="cls-1" cx="8.34" cy="15.57" rx="0.07" ry="0.16" transform="translate(-6.93 6.69) rotate(-31.65)"/><ellipse class="cls-1" cx="6.89" cy="8.95" rx="0.22" ry="0.08" transform="matrix(0.34, -0.94, 0.94, 0.34, -3.87, 12.38)"/><path class="cls-1" d="M6.9,14.49s-.11-.07-.15-.18,0-.23,0-.24.1.07.14.18S6.94,14.48,6.9,14.49Z"/><ellipse class="cls-1" cx="7.62" cy="14.01" rx="0.05" ry="0.12" transform="translate(-3.98 3.07) rotate(-18.13)"/><path class="cls-1" d="M9.51,20v0a8.51,8.51,0,0,1-1.88-1.42L7,19.19a10.68,10.68,0,0,1-3-6.4l1.22-.12A9,9,0,0,1,6.74,6.62l0,0a9,9,0,0,0-1.44,6.12l-1.21.13A10.65,10.65,0,0,0,7,19.09l.6-.61A8.29,8.29,0,0,0,9.51,20Z"/><ellipse class="cls-1" cx="6.75" cy="6.63" rx="0.26" ry="0.08" transform="translate(-2.55 8.38) rotate(-55.17)"/><ellipse class="cls-1" cx="5.32" cy="12.69" rx="0.08" ry="0.26" transform="translate(-1.33 0.64) rotate(-6.15)"/><ellipse class="cls-1" cx="9.47" cy="19.96" rx="0.07" ry="0.22" transform="translate(-12.57 18.51) rotate(-60.84)"/><ellipse class="cls-1" cx="4.08" cy="12.81" rx="0.08" ry="0.29" transform="translate(-1.37 0.52) rotate(-6.25)"/><ellipse class="cls-1" cx="7.02" cy="19.16" rx="0.08" ry="0.29" transform="translate(-11.46 10.51) rotate(-44.79)"/><ellipse class="cls-1" cx="7.6" cy="18.55" rx="0.05" ry="0.17" transform="translate(-10.86 10.74) rotate(-44.78)"/><path class="cls-1" d="M10.76,15.44l0,0a4.83,4.83,0,0,1-.77-1L9.26,15a6.31,6.31,0,0,1-.88-3.91l1.22.16A4.21,4.21,0,0,1,11,8.4l0,0a4.19,4.19,0,0,0-1.45,2.86l-1.22-.15a6.27,6.27,0,0,0,.84,3.78l.72-.46A4.77,4.77,0,0,0,10.76,15.44Z"/><path class="cls-1" d="M11,8.5s0-.1,0-.15.13-.06.16,0,0,.1-.05.15S11,8.53,11,8.5Z"/><ellipse class="cls-1" cx="9.62" cy="11.23" rx="0.13" ry="0.08" transform="translate(-2.54 19.65) rotate(-84.15)"/><ellipse class="cls-1" cx="10.74" cy="15.44" rx="0.07" ry="0.11" transform="translate(-7.83 12.46) rotate(-46.05)"/><ellipse class="cls-1" cx="8.4" cy="11.07" rx="0.16" ry="0.08" transform="translate(-3.51 18.24) rotate(-83.86)"/><path class="cls-1" d="M9.35,15.1s-.11,0-.15-.09-.05-.16,0-.19.1,0,.15.1S9.39,15.07,9.35,15.1Z"/><ellipse class="cls-1" cx="9.97" cy="14.5" rx="0.05" ry="0.09" transform="translate(-6.09 7.32) rotate(-31.4)"/><path class="cls-1" d="M15,18.29v0a7.41,7.41,0,0,1-2,0l-.15.84a6.74,6.74,0,0,1-4.61-2.73l1-.77A6.78,6.78,0,0,1,7.85,11.5h0A6.78,6.78,0,0,0,9.2,15.73l-1,.78a6.7,6.7,0,0,0,4.45,2.64l.16-.84A7.24,7.24,0,0,0,15,18.29Z"/><ellipse class="cls-1" cx="7.87" cy="11.5" rx="0.18" ry="0.08" transform="translate(-3.86 19.02) rotate(-88.28)"/><ellipse class="cls-1" cx="9.16" cy="15.69" rx="0.08" ry="0.18" transform="translate(-7.52 8.49) rotate(-36.37)"/><ellipse class="cls-1" cx="14.93" cy="18.31" rx="0.2" ry="0.06" transform="translate(-2.5 2.36) rotate(-8.34)"/><ellipse class="cls-1" cx="8.19" cy="16.46" rx="0.08" ry="0.21" transform="translate(-8.24 8.22) rotate(-36.92)"/><ellipse class="cls-1" cx="12.77" cy="19.17" rx="0.08" ry="0.25" transform="translate(-8 29.14) rotate(-81.99)"/><ellipse class="cls-1" cx="12.91" cy="18.34" rx="0.05" ry="0.13" transform="translate(-6.96 28.74) rotate(-82.48)"/><path class="cls-1" d="M8,18.17h0a8.12,8.12,0,0,1-.66-.75l-.3.25a9.48,9.48,0,0,1-1.4-2.55l.51-.2a9.6,9.6,0,0,1-.56-2.71h0A9.63,9.63,0,0,0,6.13,15l-.51.2A9.43,9.43,0,0,0,7,17.63l.3-.25A8.81,8.81,0,0,0,8,18.17Z"/><ellipse class="cls-1" cx="5.55" cy="12.2" rx="0.04" ry="0.11" transform="translate(-0.73 0.36) rotate(-3.49)"/><ellipse class="cls-1" cx="6.11" cy="14.92" rx="0.04" ry="0.11" transform="translate(-4.79 3.04) rotate(-20.25)"/><ellipse class="cls-1" cx="7.94" cy="18.16" rx="0.03" ry="0.09" transform="translate(-10.46 10.79) rotate(-44.56)"/><ellipse class="cls-1" cx="5.6" cy="15.12" rx="0.04" ry="0.12" transform="translate(-4.86 2.85) rotate(-20.11)"/><ellipse class="cls-1" cx="6.99" cy="17.66" rx="0.04" ry="0.12" transform="translate(-9.39 8.05) rotate(-38)"/><ellipse class="cls-1" cx="7.29" cy="17.42" rx="0.02" ry="0.07" transform="translate(-9.1 8.04) rotate(-37.52)"/><path class="cls-1" d="M9,14.92H9a6.78,6.78,0,0,0,.37.57l.3-.24a5.22,5.22,0,0,0,1.28,1.24L10.6,17a5.5,5.5,0,0,0,1.9.82h0A5.54,5.54,0,0,1,10.57,17l.32-.47a5.26,5.26,0,0,1-1.24-1.21l-.3.24A6,6,0,0,1,9,14.92Z"/><ellipse class="cls-1" cx="12.5" cy="17.78" rx="0.04" ry="0.09" transform="translate(-7.52 26.25) rotate(-77.82)"/><ellipse class="cls-1" cx="10.59" cy="16.96" rx="0.04" ry="0.08" transform="translate(-9.39 16.26) rotate(-56)"/><ellipse class="cls-1" cx="8.97" cy="14.92" rx="0.03" ry="0.06" transform="translate(-6.04 6.09) rotate(-28.53)"/><ellipse class="cls-1" cx="10.91" cy="16.49" rx="0.04" ry="0.07" transform="translate(-8.86 16.09) rotate(-55.34)"/><ellipse class="cls-1" cx="9.64" cy="15.25" rx="0.04" ry="0.07" transform="translate(-7.12 8.56) rotate(-35.95)"/><ellipse class="cls-1" cx="9.33" cy="15.49" rx="0.02" ry="0.05" transform="translate(-7.45 8.76) rotate(-37.09)"/><path class="cls-1" d="M4.74,3l0,0A11.25,11.25,0,0,0,3.32,4.82l.51.33a11.9,11.9,0,0,0-1.77,5.78l-.87-.06a14.36,14.36,0,0,0,1.19,6.46h0a14.44,14.44,0,0,1-1.19-6.57l.87.07A12,12,0,0,1,3.76,5.22l-.52-.33A11.29,11.29,0,0,1,4.74,3Z"/><ellipse class="cls-1" cx="2.37" cy="17.34" rx="0.06" ry="0.26" transform="translate(-6.83 2.45) rotate(-23.92)"/><ellipse class="cls-1" cx="1.18" cy="10.86" rx="0.27" ry="0.06" transform="translate(-9.73 11.46) rotate(-86.95)"/><ellipse class="cls-1" cx="4.72" cy="3.01" rx="0.22" ry="0.05" transform="translate(-0.72 4.34) rotate(-46.22)"/><ellipse class="cls-1" cx="2.05" cy="10.92" rx="0.25" ry="0.06" transform="translate(-8.96 12.43) rotate(-87.18)"/><ellipse class="cls-1" cx="3.81" cy="5.16" rx="0.25" ry="0.06" transform="translate(-2.59 5.65) rotate(-57.93)"/><ellipse class="cls-1" cx="3.31" cy="4.83" rx="0.16" ry="0.04" transform="matrix(0.53, -0.85, 0.85, 0.53, -2.55, 5.05)"/><path class="cls-1" d="M5.87,16l0,.06-.45.23a9.92,9.92,0,0,0,1.1,1.77L5.44,19a11.47,11.47,0,0,1-1.69-3l-1.33.54,0-.09,1.35-.54a11.56,11.56,0,0,0,1.66,3L6.48,18a10,10,0,0,1-1.09-1.78Z"/><ellipse class="cls-1" cx="2.39" cy="16.45" rx="0.06" ry="0.26" transform="translate(-5.99 2.09) rotate(-21.99)"/><ellipse class="cls-1" cx="3.74" cy="15.94" rx="0.06" ry="0.23" transform="translate(-5.45 2.39) rotate(-20.94)"/><path class="cls-1" d="M5.91,16c0,.08,0,.15,0,.16s-.07,0-.11-.12,0-.15,0-.16S5.88,15.95,5.91,16Z"/><ellipse class="cls-1" cx="5.42" cy="18.96" rx="0.06" ry="0.23" transform="translate(-10.9 7.89) rotate(-39.88)"/><ellipse class="cls-1" cx="6.52" cy="18.05" rx="0.06" ry="0.2" transform="translate(-9.93 8.17) rotate(-39.15)"/><ellipse class="cls-1" cx="5.44" cy="16.3" rx="0.03" ry="0.12" transform="translate(-7.08 4.53) rotate(-28.32)"/><path class="cls-1" d="M10.49,17.09l0,0-.28.43a6.14,6.14,0,0,0,1.35.68l-.51,1.35a7.37,7.37,0,0,1-2.27-1.3L7.9,19.4l-.06-.05.94-1.14A7.23,7.23,0,0,0,11,19.52l.51-1.3a6,6,0,0,1-1.35-.69Z"/><ellipse class="cls-1" cx="7.87" cy="19.37" rx="0.06" ry="0.2" transform="translate(-12.12 13.23) rotate(-50.81)"/><ellipse class="cls-1" cx="8.79" cy="18.24" rx="0.06" ry="0.17" transform="translate(-10.95 13.74) rotate(-51.43)"/><ellipse class="cls-1" cx="10.51" cy="17.11" rx="0.05" ry="0.11" transform="translate(-9.56 16.73) rotate(-57.36)"/><ellipse class="cls-1" cx="11.06" cy="19.55" rx="0.06" ry="0.18" transform="translate(-11.13 23.07) rotate(-69.53)"/><ellipse class="cls-1" cx="11.57" cy="18.22" rx="0.06" ry="0.15" transform="translate(-9.62 22.28) rotate(-68.41)"/><ellipse class="cls-1" cx="10.24" cy="17.54" rx="0.04" ry="0.09" transform="translate(-10.05 16.71) rotate(-57.38)"/><path class="cls-1" d="M11.56,7.07l0,0-.24-.45a5.36,5.36,0,0,0-1.15.75l-1-1.08a7,7,0,0,1,2.19-1.25l-.53-1.33.08,0,.53,1.36a7,7,0,0,0-2.2,1.23l.92,1.05a5.43,5.43,0,0,1,1.17-.75Z"/><ellipse class="cls-1" cx="10.86" cy="3.71" rx="0.22" ry="0.06" transform="translate(-0.6 4.25) rotate(-21.59)"/><ellipse class="cls-1" cx="11.39" cy="5.05" rx="0.18" ry="0.06" transform="translate(-1.05 4.32) rotate(-20.57)"/><ellipse class="cls-1" cx="11.53" cy="7.07" rx="0.1" ry="0.05" transform="translate(-1.93 5.79) rotate(-26.06)"/><ellipse class="cls-1" cx="9.15" cy="6.33" rx="0.16" ry="0.06" transform="translate(-1.91 7.51) rotate(-40.77)"/><ellipse class="cls-1" cx="10.14" cy="7.38" rx="0.13" ry="0.06" transform="translate(-2.35 8.47) rotate(-41.05)"/><ellipse class="cls-1" cx="11.28" cy="6.63" rx="0.09" ry="0.04" transform="translate(-1.8 6.18) rotate(-28.46)"/><path class="cls-1" d="M2.07,8.23v0l-.21-.06c-.1.37-.18.75-.24,1.14L1,9.23a13.54,13.54,0,0,1,.4-1.71l-.58-.2v0l.59.2A14.22,14.22,0,0,0,1,9.18l.58.12c.07-.38.15-.76.25-1.13Z"/><ellipse class="cls-1" cx="0.84" cy="7.29" rx="0.12" ry="0.03" transform="translate(-6.37 5.91) rotate(-72.59)"/><ellipse class="cls-1" cx="1.42" cy="7.49" rx="0.12" ry="0.03" transform="translate(-6.17 6.74) rotate(-73.53)"/><ellipse class="cls-1" cx="2.07" cy="8.25" rx="0.09" ry="0.02" transform="translate(-6.42 7.6) rotate(-71.57)"/><ellipse class="cls-1" cx="1.02" cy="9.2" rx="0.12" ry="0.02" transform="translate(-8.22 8.7) rotate(-80.56)"/><ellipse class="cls-1" cx="1.62" cy="9.32" rx="0.11" ry="0.02" transform="translate(-7.83 8.77) rotate(-76.84)"/><ellipse class="cls-1" cx="1.86" cy="8.2" rx="0.07" ry="0.02" transform="translate(-6.54 7.75) rotate(-74.18)"/><path class="cls-1" d="M4.2,10.6s0,0,0,0l-.21,0c0,.31,0,.62,0,.93l-.6,0a11.77,11.77,0,0,1,.09-1.42l-.6-.1a.22.22,0,0,1,0,0l.61.1a11.51,11.51,0,0,0-.1,1.42l.59,0c0-.31,0-.62,0-.93Z"/><ellipse class="cls-1" cx="2.83" cy="9.98" rx="0.1" ry="0.03" transform="translate(-7.39 11.74) rotate(-83.94)"/><ellipse class="cls-1" cx="3.44" cy="10.08" rx="0.09" ry="0.02" transform="translate(-6.98 12.3) rotate(-83.24)"/><ellipse class="cls-1" cx="4.2" cy="10.62" rx="0.07" ry="0.02" transform="translate(-6.9 13.26) rotate(-81.83)"/><ellipse class="cls-1" cx="3.34" cy="11.5" rx="0.09" ry="0.02" transform="translate(-8.29 14.37) rotate(-87.68)"/><ellipse class="cls-1" cx="3.94" cy="11.52" rx="0.09" ry="0.02" transform="matrix(0.04, -1, 1, 0.04, -7.74, 14.98)"/><ellipse class="cls-1" cx="3.99" cy="10.6" rx="0.06" ry="0.02" transform="translate(-7.02 13.28) rotate(-83.09)"/><path class="cls-1" d="M8.11,7.94l0,0-.21-.14a7,7,0,0,0-.37.67l-.63-.32a7.32,7.32,0,0,1,.61-1l-.58-.41,0,0,.58.42a7.14,7.14,0,0,0-.61,1l.61.31a6.19,6.19,0,0,1,.37-.67Z"/><ellipse class="cls-1" cx="6.93" cy="6.71" rx="0.09" ry="0.03" transform="translate(-2.61 8.16) rotate(-52.72)"/><ellipse class="cls-1" cx="7.51" cy="7.12" rx="0.08" ry="0.03" transform="translate(-2.62 9.27) rotate(-55.5)"/><ellipse class="cls-1" cx="8.1" cy="7.95" rx="0.06" ry="0.02" transform="translate(-2.97 10.46) rotate(-57.26)"/><ellipse class="cls-1" cx="6.9" cy="8.17" rx="0.08" ry="0.03" transform="translate(-3.57 10.35) rotate(-61.59)"/><ellipse class="cls-1" cx="7.52" cy="8.49" rx="0.07" ry="0.03" transform="translate(-3.37 11.66) rotate(-64.69)"/><ellipse class="cls-1" cx="7.88" cy="7.82" rx="0.05" ry="0.02" transform="translate(-3.13 9.25) rotate(-52.17)"/><path class="cls-1" d="M2.92,15.65h0c-.11-.32-.2-.65-.28-1l-.28.07A13.57,13.57,0,0,1,2,11.81h.42A12.53,12.53,0,0,1,2.67,9h0a12.51,12.51,0,0,0-.27,2.89H2a13.57,13.57,0,0,0,.36,2.83l.28-.07C2.71,15,2.81,15.31,2.92,15.65Z"/><ellipse class="cls-1" cx="2.67" cy="8.97" rx="0.11" ry="0.03" transform="translate(-6.65 9.75) rotate(-78.21)"/><ellipse class="cls-1" cx="2.4" cy="11.82" rx="0.03" ry="0.11" transform="matrix(1, -0.02, 0.02, 1, -0.2, 0.04)"/><ellipse class="cls-1" cx="2.91" cy="15.64" rx="0.02" ry="0.1" transform="translate(-4.68 1.66) rotate(-17.96)"/><ellipse class="cls-1" cx="1.98" cy="11.82" rx="0.03" ry="0.12" transform="translate(-0.05 0.01) rotate(-0.24)"/><ellipse class="cls-1" cx="2.35" cy="14.73" rx="0.03" ry="0.12" transform="translate(-3.23 0.9) rotate(-12.9)"/><ellipse class="cls-1" cx="2.63" cy="14.66" rx="0.02" ry="0.07" transform="translate(-3.3 1) rotate(-13.29)"/><path class="cls-1" d="M6.07,14h0c.06.23.13.46.21.69l.27-.1a8.67,8.67,0,0,0,.84,1.75l-.35.24a8.19,8.19,0,0,0,1.31,1.58h0A8.08,8.08,0,0,1,7,16.56l.35-.24a8.61,8.61,0,0,1-.82-1.7l-.27.1C6.21,14.49,6.14,14.25,6.07,14Z"/><ellipse class="cls-1" cx="8.36" cy="18.17" rx="0.03" ry="0.08" transform="translate(-10.65 11.95) rotate(-47.18)"/><ellipse class="cls-1" cx="7.05" cy="16.58" rx="0.03" ry="0.08" transform="translate(-7.77 6.33) rotate(-32.29)"/><ellipse class="cls-1" cx="6.08" cy="14.01" rx="0.02" ry="0.07" transform="translate(-3.22 1.89) rotate(-14.04)"/><ellipse class="cls-1" cx="7.4" cy="16.34" rx="0.03" ry="0.08" transform="translate(-7.76 6.75) rotate(-33.3)"/><ellipse class="cls-1" cx="6.56" cy="14.6" rx="0.03" ry="0.08" transform="translate(-4.48 3.01) rotate(-19.44)"/><ellipse class="cls-1" cx="6.29" cy="14.7" rx="0.02" ry="0.05" transform="translate(-4.32 2.74) rotate(-18.43)"/><path class="cls-1" d="M10.09,7.57h0l-.29.28L10,8a4.68,4.68,0,0,0-.64.85l-.28-.18a5.29,5.29,0,0,0-.47,1h0a5.5,5.5,0,0,1,.48-1l.28.18A4.81,4.81,0,0,1,10,8l-.17-.16Z"/><ellipse class="cls-1" cx="8.58" cy="9.69" rx="0.04" ry="0.02" transform="translate(-3.42 14.55) rotate(-70.56)"/><ellipse class="cls-1" cx="9.05" cy="8.68" rx="0.04" ry="0.02" transform="translate(-3.13 11.65) rotate(-57.5)"/><ellipse class="cls-1" cx="10.09" cy="7.58" rx="0.04" ry="0.02" transform="translate(-2.49 8.54) rotate(-41.3)"/><ellipse class="cls-1" cx="9.33" cy="8.86" rx="0.04" ry="0.02" transform="translate(-3.06 12.33) rotate(-59.16)"/><ellipse class="cls-1" cx="9.97" cy="8.02" rx="0.04" ry="0.02" transform="translate(-2.68 9.91) rotate(-47.31)"/><ellipse class="cls-1" cx="9.8" cy="7.86" rx="0.03" ry="0.01" transform="translate(-2.67 9.39) rotate(-45.72)"/><path class="cls-1" d="M8.15,3.73h0c-.2.14-.39.28-.58.43l.15.17A8.62,8.62,0,0,0,6.38,5.69l-.26-.21a9.08,9.08,0,0,0-1,1.63h0a9.08,9.08,0,0,1,1-1.65l.26.21A8.52,8.52,0,0,1,7.7,4.35l-.15-.17C7.74,4,7.94,3.87,8.15,3.73Z"/><ellipse class="cls-1" cx="5.09" cy="7.11" rx="0.08" ry="0.02" transform="translate(-3.52 8.64) rotate(-64.44)"/><ellipse class="cls-1" cx="6.13" cy="5.48" rx="0.08" ry="0.02" transform="translate(-1.97 6.87) rotate(-51.55)"/><ellipse class="cls-1" cx="8.15" cy="3.74" rx="0.07" ry="0.02" transform="translate(-0.69 5.24) rotate(-34.32)"/><ellipse class="cls-1" cx="6.38" cy="5.69" rx="0.08" ry="0.02" transform="translate(-2.05 7.11) rotate(-51.26)"/><ellipse class="cls-1" cx="7.72" cy="4.34" rx="0.08" ry="0.02" transform="translate(-1.03 5.73) rotate(-38.36)"/><ellipse class="cls-1" cx="7.57" cy="4.17" rx="0.05" ry="0.01" transform="translate(-0.9 5.89) rotate(-40.28)"/><path class="cls-1" d="M7.24,9.85h0c0,.2-.09.39-.12.59l.28.06a7.36,7.36,0,0,0-.08,1.64l-.42,0a8,8,0,0,0,.3,1.73h0a8.07,8.07,0,0,1-.3-1.76l.42,0a7.36,7.36,0,0,1,.08-1.59l-.28-.05C7.14,10.27,7.19,10.06,7.24,9.85Z"/><ellipse class="cls-1" cx="7.21" cy="13.9" rx="0.03" ry="0.07" transform="translate(-3.43 2.41) rotate(-15.36)"/><ellipse class="cls-1" cx="6.91" cy="12.16" rx="0.03" ry="0.07" transform="translate(-0.75 0.46) rotate(-3.58)"/><ellipse class="cls-1" cx="7.24" cy="9.86" rx="0.06" ry="0.02" transform="translate(-4.06 14.55) rotate(-76.24)"/><ellipse class="cls-1" cx="7.32" cy="12.14" rx="0.03" ry="0.07" transform="translate(-0.61 0.39) rotate(-2.93)"/><ellipse class="cls-1" cx="7.41" cy="10.51" rx="0.07" ry="0.03" transform="translate(-4.21 16.01) rotate(-80.17)"/><ellipse class="cls-1" cx="7.12" cy="10.45" rx="0.04" ry="0.02" transform="translate(-4.29 15.92) rotate(-81.3)"/><path class="cls-1" d="M11.17,8.19h0L11,8a4.69,4.69,0,0,0-.4.34l-.49-.49a4.74,4.74,0,0,1,.68-.55l-.41-.56h0l.41.57a4.92,4.92,0,0,0-.68.55l.47.48A4.24,4.24,0,0,1,11,8Z"/><ellipse class="cls-1" cx="10.4" cy="6.74" rx="0.07" ry="0.03" transform="translate(-1.96 7.68) rotate(-37.28)"/><ellipse class="cls-1" cx="10.81" cy="7.3" rx="0.06" ry="0.03" transform="translate(-2.22 8.01) rotate(-37.18)"/><ellipse class="cls-1" cx="11.16" cy="8.19" rx="0.04" ry="0.02" transform="translate(-2.68 8.45) rotate(-37.34)"/><ellipse class="cls-1" cx="10.13" cy="7.85" rx="0.06" ry="0.03" transform="translate(-2.53 9.84) rotate(-46.71)"/><ellipse class="cls-1" cx="10.61" cy="8.34" rx="0.05" ry="0.03" transform="translate(-2.81 9.79) rotate(-44.31)"/><ellipse class="cls-1" cx="11.01" cy="8" rx="0.03" ry="0.02" transform="translate(-2.56 9.07) rotate(-40.51)"/><path class="cls-1" d="M3.47,16h0a12.53,12.53,0,0,1-.22-8.19l1.16.42A9.24,9.24,0,0,1,9,2.86l-.42-.74A12.36,12.36,0,0,1,12,1V1A12.16,12.16,0,0,0,8.73,2.08l.41.75A9.22,9.22,0,0,0,4.37,8.4L3.21,8A12.5,12.5,0,0,0,3.47,16Z"/><ellipse class="cls-1" cx="3.45" cy="16.05" rx="0.08" ry="0.33" transform="translate(-5.38 2.21) rotate(-20.41)"/><path class="cls-1" d="M3.31,7.65s0,.17,0,.34-.13.3-.17.29,0-.17,0-.34S3.26,7.64,3.31,7.65Z"/><ellipse class="cls-1" cx="11.92" cy="1.01" rx="0.34" ry="0.07" transform="translate(0.02 2.22) rotate(-10.65)"/><path class="cls-1" d="M4.46,8.1s0,.15,0,.31-.12.27-.16.25,0-.15,0-.31S4.41,8.08,4.46,8.1Z"/><ellipse class="cls-1" cx="9.11" cy="2.82" rx="0.33" ry="0.08" transform="translate(-0.3 4.39) rotate(-26.68)"/><ellipse class="cls-1" cx="8.7" cy="2.08" rx="0.23" ry="0.05" transform="translate(-0.01 4.14) rotate(-26.73)"/><path class="cls-1" d="M10.11,4.67l-1-1.82.06,0,1,1.82Z"/><path class="cls-1" d="M10.17,4.74c-.14.07-.27.1-.3.06s.07-.14.21-.21.28-.09.31,0S10.31,4.67,10.17,4.74Z"/><path class="cls-1" d="M2.39,16.49h0A14.07,14.07,0,0,1,1.5,12.3a13.43,13.43,0,0,1-.33-1.42v-.05a13.52,13.52,0,0,0,.33,1.45A14,14,0,0,0,2.39,16.49Z"/><path class="cls-1" d="M8.23,16.51l-.2.16a8.07,8.07,0,0,1-1.19-2.29h0A7.92,7.92,0,0,0,8,16.62l.18-.14Z"/><path class="cls-1" d="M3.76,15.94h0A12.35,12.35,0,0,1,3,12.87l1.06-.1s0,.05,0,.08L3,13A12.37,12.37,0,0,0,3.76,15.94Z"/><path class="cls-1" d="M8.41,11.08h0a6.08,6.08,0,0,1,.1-.64l.78.19c0-.12.05-.23.08-.34h0c0,.12-.07.25-.09.38l-.78-.19A5.68,5.68,0,0,0,8.41,11.08Z"/><path class="cls-1" d="M7.82,14l-.19.07,0-.05.17-.05a7.37,7.37,0,0,1-.35-2.49l.44,0s0,0,0,.05l-.42,0A7.36,7.36,0,0,0,7.82,14Z"/><path class="cls-1" d="M5.45,16.29h0A10.71,10.71,0,0,1,4.62,14l.88-.2a9.8,9.8,0,0,1-.18-1.09h0a9.92,9.92,0,0,0,.2,1.16l-.88.21A10.56,10.56,0,0,0,5.45,16.29Z"/><path class="cls-1" d="M6.27,14l-.18,0v0l.16,0A9,9,0,0,1,6,12.18l-.41,0s0,0,0,0l.42,0A9.07,9.07,0,0,0,6.27,14Z"/><path class="cls-1" d="M.88,6.55h0q.21-.58.47-1.14l.8.4A11.8,11.8,0,0,1,6.39.91h0a11.79,11.79,0,0,0-4.28,5l-.8-.4C1.15,5.83,1,6.19.88,6.55Z"/><path class="cls-1" d="M8.91,1.5,8.29.26l.07,0L9,1.46A13,13,0,0,1,11.85.58l.08.43-.08,0L11.77.61A12.93,12.93,0,0,0,8.91,1.5Z"/><path class="cls-1" d="M8.17,5.57l0,0a7.58,7.58,0,0,1,.92-.72l.5.71a7,7,0,0,0-.7.53l.25.27,0,0L8.82,6.1a6.06,6.06,0,0,1,.7-.54L9,4.9A7.65,7.65,0,0,0,8.17,5.57Z"/><path class="cls-1" d="M10.43,5.3l-.33-.59,0,0,.32.58c.2-.1.42-.19.64-.28l0,.1.22,0,0,0-.24,0,0-.09C10.84,5.11,10.63,5.2,10.43,5.3Z"/><path class="cls-1" d="M3.83,5.17h0A10.74,10.74,0,0,1,5.16,3.43L4.71,3l0-.05.46.44A11,11,0,0,0,3.83,5.17Z"/><path class="cls-1" d="M5.65,7.93,5,7.64l0,0,.62.29c.09-.21.19-.42.3-.62H6C5.85,7.49,5.74,7.71,5.65,7.93Z"/><path class="cls-1" d="M11.54,7.08h0a5.65,5.65,0,0,1,.84-.32l-.34-1a6.49,6.49,0,0,0-.75.27V6a7.57,7.57,0,0,1,.79-.28l.34,1.05A5.62,5.62,0,0,0,11.54,7.08Z"/><path class="cls-1" d="M9.85,11.31l-.24,0v0l.23,0a4.12,4.12,0,0,1,.7-2h0A4.13,4.13,0,0,0,9.85,11.31Z"/><path class="cls-1" d="M10.53,17.11v0a4.87,4.87,0,0,1-.41-.3l.05-.06a5.8,5.8,0,0,1-1-1.06h0a6,6,0,0,0,1,1.08l-.05.07Z"/><path class="cls-1" d="M7,20l-.32.37A10.72,10.72,0,0,1,5.43,19h0a10.39,10.39,0,0,0,1.19,1.28l.29-.34-.34-.33L7,19.18l.05.06-.39.42Z"/></g></g></svg>