<svg xmlns="http://www.w3.org/2000/svg" xmlns:xlink="http://www.w3.org/1999/xlink" viewBox="0 0 22.36 22.73"><defs><style>.cls-1{isolation:isolate;}.cls-2{opacity:0.15;}.cls-3{fill:#333;}.cls-4{fill:#fcfcfc;}.cls-5{opacity:0.3;mix-blend-mode:multiply;fill:url(#radial-gradient);}</style><radialGradient id="radial-gradient" cx="-304.65" cy="-793.96" r="2.84" gradientTransform="matrix(-1.9, 0, 0, 0.19, -561.54, 173.58)" gradientUnits="userSpaceOnUse"><stop offset="0" stop-color="#0f0f0f"/><stop offset="0.11" stop-color="#464646"/><stop offset="0.23" stop-color="#767676"/><stop offset="0.35" stop-color="#a0a0a0"/><stop offset="0.48" stop-color="#c3c3c3"/><stop offset="0.6" stop-color="#ddd"/><stop offset="0.73" stop-color="#f0f0f0"/><stop offset="0.86" stop-color="#fbfbfb"/><stop offset="1" stop-color="#fff"/></radialGradient></defs><title>Asset 3mdpi</title><g class="cls-1"><g id="Layer_2" data-name="Layer 2"><g id="Layer_1-2" data-name="Layer 1"><g class="cls-2"><path class="cls-3" d="M6.59,8.12,4.63,7A11.09,11.09,0,0,1,8.35,2.91L7,1.07,7.18,1,8.49,2.86A11.05,11.05,0,0,0,4.72,6.93L6.61,8A9.14,9.14,0,0,1,8.55,5.54l.57.61L9,6.22l-.55-.58A9.14,9.14,0,0,0,6.59,8.12Z"/><path class="cls-3" d="M7.16,1.1c-.21.14-.4.22-.43.18s.11-.19.33-.33S7.47.73,7.5.78,7.37,1,7.16,1.1Z"/><ellipse class="cls-3" cx="8.41" cy="2.88" rx="0.39" ry="0.09" transform="translate(-0.13 5.34) rotate(-34.98)"/><ellipse class="cls-3" cx="9.08" cy="6.18" rx="0.23" ry="0.07" transform="translate(-1.79 7.77) rotate(-42.58)"/><ellipse class="cls-3" cx="4.66" cy="6.98" rx="0.36" ry="0.09" transform="translate(-3.71 7.59) rotate(-60.42)"/><ellipse class="cls-3" cx="6.61" cy="8.07" rx="0.29" ry="0.09" transform="translate(-3.67 9.86) rotate(-60.55)"/><ellipse class="cls-3" cx="8.5" cy="5.62" rx="0.19" ry="0.06" transform="translate(-1.53 7.42) rotate(-43.62)"/><path class="cls-3" d="M10.36,11.44l-2.13-.68A7.13,7.13,0,0,1,9.87,7.82L8.21,6.28l.08-.08L10,7.78a7.06,7.06,0,0,0-1.67,2.9l2.06.68a5.17,5.17,0,0,1,.72-1.5l.68.48,0,0-.66-.46A5.14,5.14,0,0,0,10.36,11.44Z"/><ellipse class="cls-3" cx="8.24" cy="6.25" rx="0.3" ry="0.09" transform="translate(-1.94 8.05) rotate(-47.17)"/><ellipse class="cls-3" cx="9.91" cy="7.8" rx="0.23" ry="0.09" transform="translate(-2.55 9.76) rotate(-47.17)"/><ellipse class="cls-3" cx="11.72" cy="10.37" rx="0.11" ry="0.07" transform="translate(-3.54 13.83) rotate(-54.28)"/><ellipse class="cls-3" cx="8.25" cy="10.72" rx="0.22" ry="0.09" transform="translate(-4.53 15.15) rotate(-71.52)"/><ellipse class="cls-3" cx="10.36" cy="11.41" rx="0.16" ry="0.09" transform="translate(-3.67 17.79) rotate(-72.2)"/><ellipse class="cls-3" cx="11.06" cy="9.93" rx="0.1" ry="0.06" transform="translate(-3.43 13.23) rotate(-54.76)"/><path class="cls-3" d="M6.9,13.17H4.68a11.37,11.37,0,0,1,.87-4.67L3.5,7.57l.06-.13,2.08,1a11.3,11.3,0,0,0-.91,4.64H6.86a9.37,9.37,0,0,1,.34-2.62l.79.25,0,.08-.76-.23A9.27,9.27,0,0,0,6.9,13.17Z"/><ellipse class="cls-3" cx="3.53" cy="7.51" rx="0.38" ry="0.09" transform="translate(-4.77 7.52) rotate(-64.94)"/><ellipse class="cls-3" cx="5.58" cy="8.46" rx="0.31" ry="0.09" transform="translate(-4.45 9.94) rotate(-64.94)"/><ellipse class="cls-3" cx="7.97" cy="10.75" rx="0.19" ry="0.07" transform="translate(-4.64 15.23) rotate(-73.01)"/><path class="cls-3" d="M4.78,13.13c0,.17,0,.31-.08.31s-.1-.14-.1-.31,0-.32.09-.32S4.77,13,4.78,13.13Z"/><path class="cls-3" d="M7,13.13c0,.13,0,.25-.08.25s-.09-.11-.1-.25,0-.26.09-.26S7,13,7,13.13Z"/><ellipse class="cls-3" cx="7.21" cy="10.54" rx="0.16" ry="0.06" transform="translate(-4.99 14.34) rotate(-72.93)"/><path class="cls-3" d="M3.32,21.26l0,0A15.66,15.66,0,0,1,1.74,17.9l-.89.31A17,17,0,0,1,1,7.25l1.28.51A12.93,12.93,0,0,1,9.45.19v0a12.91,12.91,0,0,0-7.24,7.7L.94,7.42A16.94,16.94,0,0,0,.83,18l.89-.3A15.69,15.69,0,0,0,3.32,21.26Z"/><path class="cls-3" d="M9,.4s.15-.17.4-.28S9.88,0,9.9,0s-.17.16-.41.26S9,.44,9,.4Z"/><path class="cls-3" d="M2.11,8.18s0-.21.05-.42.18-.37.23-.35,0,.21-.06.42S2.16,8.19,2.11,8.18Z"/><path class="cls-3" d="M3.46,21.52s-.14-.09-.24-.25-.15-.32-.11-.34.14.1.24.26S3.5,21.49,3.46,21.52Z"/><ellipse class="cls-3" cx="0.97" cy="7.28" rx="0.45" ry="0.09" transform="translate(-6.2 5.72) rotate(-70.08)"/><ellipse class="cls-3" cx="0.86" cy="18.17" rx="0.09" ry="0.45" transform="translate(-5.56 1.15) rotate(-17.97)"/><path class="cls-3" d="M1.82,18.12s-.09-.09-.13-.23-.06-.26,0-.27.09.09.13.24S1.85,18.11,1.82,18.12Z"/><path class="cls-3" d="M9.29,17.31l0,0a8.26,8.26,0,0,1-.8-1.74l-.89.3a9.21,9.21,0,0,1,.06-6l1.27.51a6.49,6.49,0,0,1,3.61-3.8l0,0a6.47,6.47,0,0,0-3.62,3.85L7.64,10a9.22,9.22,0,0,0-.06,5.77l.89-.29A8,8,0,0,0,9.29,17.31Z"/><path class="cls-3" d="M12.32,6.75s.05-.12.18-.18.24-.06.26,0-.06.12-.18.17S12.34,6.8,12.32,6.75Z"/><ellipse class="cls-3" cx="8.93" cy="10.46" rx="0.21" ry="0.09" transform="translate(-3.95 15.27) rotate(-70)"/><ellipse class="cls-3" cx="9.27" cy="17.3" rx="0.07" ry="0.18" transform="matrix(0.85, -0.52, 0.52, 0.85, -7.68, 7.41)"/><ellipse class="cls-3" cx="7.65" cy="9.95" rx="0.24" ry="0.09" transform="translate(-4.33 13.69) rotate(-69.77)"/><ellipse class="cls-3" cx="7.59" cy="15.87" rx="0.09" ry="0.25" transform="translate(-4.53 3.12) rotate(-17.97)"/><ellipse class="cls-3" cx="8.47" cy="15.57" rx="0.06" ry="0.14" transform="translate(-4.41 3.39) rotate(-18.05)"/><path class="cls-3" d="M10.56,22.18v0a9.24,9.24,0,0,1-2.09-1.58l-.66.69a11.86,11.86,0,0,1-3.28-7.11l1.35-.13A10,10,0,0,1,7.48,7.36l0,0a9.94,9.94,0,0,0-1.6,6.81l-1.35.15a11.85,11.85,0,0,0,3.18,6.88l.67-.68A9.21,9.21,0,0,0,10.56,22.18Z"/><ellipse class="cls-3" cx="7.5" cy="7.37" rx="0.28" ry="0.09" transform="translate(-2.84 9.29) rotate(-55.03)"/><ellipse class="cls-3" cx="5.91" cy="14.1" rx="0.09" ry="0.28" transform="translate(-1.46 0.71) rotate(-6.1)"/><ellipse class="cls-3" cx="10.53" cy="22.18" rx="0.07" ry="0.25" transform="translate(-13.97 20.55) rotate(-60.81)"/><ellipse class="cls-3" cx="4.54" cy="14.23" rx="0.09" ry="0.32" transform="matrix(0.99, -0.11, 0.11, 0.99, -1.52, 0.58)"/><ellipse class="cls-3" cx="7.8" cy="21.29" rx="0.09" ry="0.32" transform="translate(-12.74 11.69) rotate(-44.82)"/><ellipse class="cls-3" cx="8.45" cy="20.61" rx="0.06" ry="0.19" transform="translate(-12.02 11.82) rotate(-44.47)"/><path class="cls-3" d="M12,17.16l0,0a5.33,5.33,0,0,1-.86-1.06l-.79.52a7,7,0,0,1-1-4.35l1.35.18a4.68,4.68,0,0,1,1.61-3.14l0,0a4.67,4.67,0,0,0-1.61,3.18l-1.35-.17a7,7,0,0,0,.94,4.2l.8-.51A5.42,5.42,0,0,0,12,17.16Z"/><ellipse class="cls-3" cx="12.29" cy="9.34" rx="0.15" ry="0.09" transform="translate(-3.13 10.08) rotate(-39.97)"/><ellipse class="cls-3" cx="10.68" cy="12.48" rx="0.14" ry="0.09" transform="translate(-2.82 21.84) rotate(-84.17)"/><ellipse class="cls-3" cx="11.94" cy="17.16" rx="0.07" ry="0.13" transform="translate(-8.71 13.92) rotate(-46.26)"/><ellipse class="cls-3" cx="9.33" cy="12.31" rx="0.18" ry="0.09" transform="translate(-3.91 20.26) rotate(-83.81)"/><path class="cls-3" d="M10.4,16.77s-.12,0-.17-.1-.06-.18,0-.21.12,0,.17.11S10.44,16.75,10.4,16.77Z"/><ellipse class="cls-3" cx="11.08" cy="16.11" rx="0.06" ry="0.1" transform="translate(-6.77 8.13) rotate(-31.39)"/><path class="cls-3" d="M16.63,20.33v0a8.22,8.22,0,0,1-2.27,0l-.16.93a7.48,7.48,0,0,1-5.12-3l1.08-.85a7.52,7.52,0,0,1-1.43-4.66h0a7.53,7.53,0,0,0,1.47,4.7l-1.07.86a7.44,7.44,0,0,0,4.94,2.93l.17-.93A8.11,8.11,0,0,0,16.63,20.33Z"/><ellipse class="cls-3" cx="8.75" cy="12.78" rx="0.2" ry="0.09" transform="translate(-4.28 21.15) rotate(-88.32)"/><ellipse class="cls-3" cx="10.18" cy="17.44" rx="0.09" ry="0.2" transform="translate(-8.37 9.45) rotate(-36.43)"/><ellipse class="cls-3" cx="16.59" cy="20.35" rx="0.22" ry="0.07" transform="translate(-2.75 2.59) rotate(-8.25)"/><path class="cls-3" d="M9.25,18.48s-.13,0-.22-.13-.11-.22-.07-.25.13,0,.21.13S9.28,18.45,9.25,18.48Z"/><path class="cls-3" d="M14.46,21.33c0,.05-.14.08-.29.06s-.26-.08-.25-.13.14-.07.28,0S14.46,21.29,14.46,21.33Z"/><ellipse class="cls-3" cx="14.35" cy="20.38" rx="0.06" ry="0.15" transform="translate(-7.81 31.8) rotate(-82.12)"/><path class="cls-3" d="M8.84,20.19h0a9.36,9.36,0,0,1-.73-.84l-.33.27A10.52,10.52,0,0,1,6.21,16.8l.57-.22a10.63,10.63,0,0,1-.62-3h0a10.52,10.52,0,0,0,.64,3.05l-.57.23a10.56,10.56,0,0,0,1.51,2.75l.33-.27A10,10,0,0,0,8.84,20.19Z"/><ellipse class="cls-3" cx="6.17" cy="13.56" rx="0.04" ry="0.12" transform="translate(-0.69 0.33) rotate(-2.93)"/><ellipse class="cls-3" cx="6.79" cy="16.58" rx="0.04" ry="0.12" transform="translate(-5.32 3.37) rotate(-20.24)"/><ellipse class="cls-3" cx="8.82" cy="20.18" rx="0.03" ry="0.1" transform="translate(-11.63 12.01) rotate(-44.6)"/><ellipse class="cls-3" cx="6.22" cy="16.8" rx="0.04" ry="0.13" transform="translate(-5.47 3.23) rotate(-20.42)"/><ellipse class="cls-3" cx="7.77" cy="19.63" rx="0.04" ry="0.13" transform="translate(-10.41 8.91) rotate(-37.88)"/><ellipse class="cls-3" cx="8.1" cy="19.36" rx="0.02" ry="0.08" transform="translate(-10.05 8.82) rotate(-37.16)"/><path class="cls-3" d="M10,16.58h0a7.49,7.49,0,0,0,.41.63l.34-.26a5.78,5.78,0,0,0,1.42,1.38l-.35.52a6.08,6.08,0,0,0,2.12.91v0a6.09,6.09,0,0,1-2.15-.93l.35-.52A5.81,5.81,0,0,1,10.72,17l-.34.26A6.52,6.52,0,0,1,10,16.58Z"/><ellipse class="cls-3" cx="13.89" cy="19.76" rx="0.04" ry="0.1" transform="translate(-8.33 29.23) rotate(-77.97)"/><ellipse class="cls-3" cx="11.77" cy="18.85" rx="0.04" ry="0.09" transform="translate(-10.43 17.91) rotate(-55.6)"/><ellipse class="cls-3" cx="9.96" cy="16.58" rx="0.03" ry="0.07" transform="translate(-6.8 6.93) rotate(-29.06)"/><ellipse class="cls-3" cx="12.12" cy="18.33" rx="0.04" ry="0.08" transform="translate(-9.85 17.85) rotate(-55.26)"/><ellipse class="cls-3" cx="10.71" cy="16.95" rx="0.04" ry="0.08" transform="translate(-7.96 9.63) rotate(-36.3)"/><ellipse class="cls-3" cx="10.37" cy="17.21" rx="0.03" ry="0.05" transform="translate(-8.28 9.74) rotate(-37.09)"/><path class="cls-3" d="M5.26,3.31l0,0a12.37,12.37,0,0,0-1.59,2l.57.37a13.23,13.23,0,0,0-2,6.42l-1-.07a16,16,0,0,0,1.32,7.18h0A16,16,0,0,1,1.3,12l1,.08A13.28,13.28,0,0,1,4.18,5.8l-.57-.37A12.39,12.39,0,0,1,5.26,3.31Z"/><ellipse class="cls-3" cx="2.64" cy="19.27" rx="0.06" ry="0.29" transform="translate(-7.64 2.75) rotate(-24.09)"/><ellipse class="cls-3" cx="1.31" cy="12.07" rx="0.3" ry="0.07" transform="translate(-10.8 12.8) rotate(-87.25)"/><ellipse class="cls-3" cx="5.25" cy="3.34" rx="0.24" ry="0.05" transform="translate(-0.79 4.83) rotate(-46.3)"/><ellipse class="cls-3" cx="2.28" cy="12.14" rx="0.28" ry="0.06" transform="translate(-9.97 13.75) rotate(-86.86)"/><ellipse class="cls-3" cx="4.24" cy="5.74" rx="0.28" ry="0.07" transform="translate(-2.87 6.3) rotate(-58.03)"/><ellipse class="cls-3" cx="3.67" cy="5.37" rx="0.18" ry="0.04" transform="translate(-2.83 5.66) rotate(-58.15)"/><path class="cls-3" d="M6.52,17.79l0,.07-.5.26a11.08,11.08,0,0,0,1.22,2L6,21.11a12.83,12.83,0,0,1-1.87-3.35l-1.48.6,0-.1,1.5-.59A12.9,12.9,0,0,0,6,21l1.2-1a11.14,11.14,0,0,1-1.21-2Z"/><ellipse class="cls-3" cx="2.65" cy="18.28" rx="0.06" ry="0.29" transform="translate(-6.59 2.29) rotate(-21.77)"/><ellipse class="cls-3" cx="4.16" cy="17.72" rx="0.06" ry="0.25" transform="translate(-5.94 2.58) rotate(-20.5)"/><path class="cls-3" d="M6.57,17.8c0,.09.05.16,0,.18s-.08,0-.12-.13,0-.16,0-.18S6.53,17.72,6.57,17.8Z"/><path class="cls-3" d="M6.07,21c.09.11.13.21.11.24s-.12,0-.21-.16-.13-.22-.1-.24S6,20.92,6.07,21Z"/><ellipse class="cls-3" cx="7.24" cy="20.06" rx="0.06" ry="0.22" transform="translate(-10.97 8.97) rotate(-38.81)"/><ellipse class="cls-3" cx="6.04" cy="18.11" rx="0.04" ry="0.14" transform="translate(-7.68 4.83) rotate(-27.49)"/><path class="cls-3" d="M11.66,19l0,0-.31.48a6.63,6.63,0,0,0,1.5.76l-.57,1.5A8.21,8.21,0,0,1,9.79,20.3l-1,1.25-.06-.05,1-1.27a8.07,8.07,0,0,0,2.5,1.46l.57-1.45a6.71,6.71,0,0,1-1.5-.77Z"/><ellipse class="cls-3" cx="8.74" cy="21.53" rx="0.06" ry="0.22" transform="translate(-13.32 14.24) rotate(-49.62)"/><ellipse class="cls-3" cx="9.77" cy="20.27" rx="0.07" ry="0.19" transform="translate(-12.08 14.87) rotate(-50.39)"/><ellipse class="cls-3" cx="11.68" cy="19.01" rx="0.05" ry="0.12" transform="translate(-10.62 18.19) rotate(-56.32)"/><ellipse class="cls-3" cx="12.28" cy="21.73" rx="0.07" ry="0.2" transform="translate(-12.45 25.09) rotate(-68.26)"/><ellipse class="cls-3" cx="12.86" cy="20.24" rx="0.07" ry="0.16" transform="translate(-10.68 24.84) rotate(-68.62)"/><ellipse class="cls-3" cx="11.38" cy="19.49" rx="0.04" ry="0.1" transform="translate(-11.17 18.52) rotate(-57.25)"/><path class="cls-3" d="M12.84,7.86l0,0-.27-.5a5.9,5.9,0,0,0-1.28.83L10.18,7a7.74,7.74,0,0,1,2.44-1.39L12,4.14l.08,0,.59,1.51A7.78,7.78,0,0,0,10.24,7l1,1.17a6,6,0,0,1,1.3-.83Z"/><path class="cls-3" d="M12.09,4.19c-.12,0-.23.05-.25,0s.07-.1.2-.14.24,0,.25,0S12.21,4.14,12.09,4.19Z"/><ellipse class="cls-3" cx="12.65" cy="5.62" rx="0.2" ry="0.06" transform="translate(-1.17 4.85) rotate(-20.76)"/><ellipse class="cls-3" cx="12.82" cy="7.86" rx="0.11" ry="0.05" transform="translate(-2.17 6.63) rotate(-26.81)"/><ellipse class="cls-3" cx="10.17" cy="7.03" rx="0.18" ry="0.07" transform="translate(-2.12 8.41) rotate(-41.05)"/><ellipse class="cls-3" cx="11.26" cy="8.2" rx="0.14" ry="0.07" transform="translate(-2.61 9.48) rotate(-41.33)"/><ellipse class="cls-3" cx="12.54" cy="7.37" rx="0.1" ry="0.04" transform="translate(-1.99 6.7) rotate(-27.8)"/><path class="cls-3" d="M2.3,9.15v0l-.23-.07c-.11.41-.2.84-.27,1.26l-.66-.13a15.25,15.25,0,0,1,.45-1.9L.93,8.13v0l.66.23a15.42,15.42,0,0,0-.45,1.9l.64.13c.07-.43.16-.84.27-1.26Z"/><ellipse class="cls-3" cx="0.93" cy="8.11" rx="0.13" ry="0.03" transform="translate(-7.09 6.61) rotate(-72.85)"/><ellipse class="cls-3" cx="1.58" cy="8.33" rx="0.13" ry="0.03" transform="translate(-6.84 7.41) rotate(-73)"/><ellipse class="cls-3" cx="2.3" cy="9.17" rx="0.1" ry="0.02" transform="translate(-7.11 8.23) rotate(-70.23)"/><ellipse class="cls-3" cx="1.14" cy="10.23" rx="0.13" ry="0.03" transform="translate(-9.15 9.79) rotate(-81.21)"/><ellipse class="cls-3" cx="1.8" cy="10.36" rx="0.12" ry="0.03" transform="matrix(0.22, -0.97, 0.97, 0.22, -8.7, 9.8)"/><ellipse class="cls-3" cx="2.06" cy="9.12" rx="0.08" ry="0.02" transform="translate(-7.28 8.86) rotate(-75.69)"/><path class="cls-3" d="M4.67,11.78s0,0,0,0l-.24,0c0,.34,0,.69-.05,1l-.67,0a13,13,0,0,1,.11-1.58l-.67-.11a.26.26,0,0,1,0,0l.68.11a12.73,12.73,0,0,0-.11,1.58l.65,0c0-.34,0-.69.06-1Z"/><ellipse class="cls-3" cx="3.14" cy="11.09" rx="0.11" ry="0.03" transform="matrix(0.13, -0.99, 0.99, 0.13, -8.27, 12.71)"/><ellipse class="cls-3" cx="3.82" cy="11.2" rx="0.1" ry="0.03" transform="translate(-7.81 13.37) rotate(-81.74)"/><ellipse class="cls-3" cx="4.67" cy="11.8" rx="0.08" ry="0.02" transform="translate(-7.67 14.73) rotate(-81.79)"/><ellipse class="cls-3" cx="3.71" cy="12.78" rx="0.1" ry="0.03" transform="translate(-9.2 16.03) rotate(-87.97)"/><ellipse class="cls-3" cx="4.38" cy="12.8" rx="0.1" ry="0.03" transform="translate(-8.57 16.72) rotate(-87.97)"/><ellipse class="cls-3" cx="4.43" cy="11.78" rx="0.06" ry="0.02" transform="matrix(0.13, -0.99, 0.99, 0.13, -7.83, 14.62)"/><path class="cls-3" d="M9,8.82v0L8.76,8.7a7.49,7.49,0,0,0-.41.74l-.7-.35a8.15,8.15,0,0,1,.67-1.17l-.64-.46,0,0,.65.46a8.24,8.24,0,0,0-.68,1.16l.67.34a7.23,7.23,0,0,1,.41-.74Z"/><ellipse class="cls-3" cx="7.7" cy="7.45" rx="0.1" ry="0.03" transform="translate(-2.83 9.47) rotate(-54.9)"/><ellipse class="cls-3" cx="8.34" cy="7.91" rx="0.09" ry="0.03" transform="translate(-2.91 10.27) rotate(-55.32)"/><ellipse class="cls-3" cx="8.99" cy="8.84" rx="0.06" ry="0.03" transform="translate(-3.28 11.71) rotate(-57.66)"/><ellipse class="cls-3" cx="7.66" cy="9.08" rx="0.09" ry="0.03" transform="translate(-3.98 11.46) rotate(-61.38)"/><ellipse class="cls-3" cx="8.35" cy="9.43" rx="0.08" ry="0.03" transform="translate(-3.77 12.84) rotate(-64.17)"/><ellipse class="cls-3" cx="8.76" cy="8.69" rx="0.05" ry="0.02" transform="translate(-3.36 11.05) rotate(-55.78)"/><path class="cls-3" d="M3.24,17.39h0q-.18-.54-.31-1.1l-.31.08a15,15,0,0,1-.41-3.25h.46A14,14,0,0,1,3,10H3a14,14,0,0,0-.3,3.21H2.21a15,15,0,0,0,.4,3.15l.31-.07C3,16.63,3.12,17,3.24,17.39Z"/><ellipse class="cls-3" cx="2.97" cy="9.96" rx="0.13" ry="0.03" transform="translate(-7.39 10.88) rotate(-78.47)"/><ellipse class="cls-3" cx="2.66" cy="13.13" rx="0.03" ry="0.13" transform="translate(-0.25 0.05) rotate(-1.11)"/><ellipse class="cls-3" cx="3.23" cy="17.38" rx="0.02" ry="0.11" transform="translate(-5.13 1.81) rotate(-17.71)"/><ellipse class="cls-3" cx="2.2" cy="13.13" rx="0.03" ry="0.13" transform="translate(-0.05 0.01) rotate(-0.22)"/><ellipse class="cls-3" cx="2.61" cy="16.37" rx="0.03" ry="0.13" transform="translate(-3.62 1.01) rotate(-13.02)"/><ellipse class="cls-3" cx="2.92" cy="16.29" rx="0.02" ry="0.08" transform="translate(-3.68 1.11) rotate(-13.35)"/><path class="cls-3" d="M6.75,15.56h0c.07.26.15.51.23.76l.3-.11a9.62,9.62,0,0,0,.94,1.95l-.39.26a9.11,9.11,0,0,0,1.46,1.76h0A9,9,0,0,1,7.81,18.4l.39-.26a9.73,9.73,0,0,1-.91-1.89l-.3.12Q6.85,16,6.75,15.56Z"/><ellipse class="cls-3" cx="9.29" cy="20.19" rx="0.03" ry="0.09" transform="translate(-11.91 13.52) rotate(-47.83)"/><ellipse class="cls-3" cx="7.83" cy="18.42" rx="0.03" ry="0.09" transform="translate(-8.74 7.19) rotate(-32.84)"/><ellipse class="cls-3" cx="6.75" cy="15.57" rx="0.03" ry="0.08" transform="translate(-3.79 2.27) rotate(-14.95)"/><ellipse class="cls-3" cx="8.22" cy="18.16" rx="0.03" ry="0.09" transform="translate(-8.44 7.22) rotate(-32.35)"/><ellipse class="cls-3" cx="7.29" cy="16.22" rx="0.03" ry="0.09" transform="translate(-5.01 3.38) rotate(-19.56)"/><ellipse class="cls-3" cx="6.99" cy="16.33" rx="0.02" ry="0.06" transform="translate(-4.84 3.08) rotate(-18.58)"/><path class="cls-3" d="M11.21,8.42h0l-.32.31.19.17a5.19,5.19,0,0,0-.71.94l-.31-.2a6.18,6.18,0,0,0-.52,1.12h0a6.14,6.14,0,0,1,.54-1.14l.31.2a5.44,5.44,0,0,1,.69-.91l-.19-.17C11,8.63,11.09,8.52,11.21,8.42Z"/><ellipse class="cls-3" cx="9.53" cy="10.77" rx="0.05" ry="0.02" transform="translate(-3.83 16.09) rotate(-70.22)"/><ellipse class="cls-3" cx="10.06" cy="9.65" rx="0.05" ry="0.02" transform="translate(-3.43 13.15) rotate(-58.39)"/><ellipse class="cls-3" cx="11.21" cy="8.42" rx="0.04" ry="0.02" transform="translate(-2.77 9.51) rotate(-41.39)"/><ellipse class="cls-3" cx="10.37" cy="9.84" rx="0.05" ry="0.02" transform="translate(-3.34 13.89) rotate(-59.96)"/><ellipse class="cls-3" cx="11.08" cy="8.91" rx="0.05" ry="0.02" transform="translate(-2.98 11) rotate(-47.27)"/><ellipse class="cls-3" cx="10.89" cy="8.74" rx="0.03" ry="0.02" transform="translate(-2.95 10.56) rotate(-46.25)"/><path class="cls-3" d="M9.06,4.15h0c-.22.15-.44.31-.64.48l.17.19a9.54,9.54,0,0,0-1.49,1.5l-.29-.23A10.12,10.12,0,0,0,5.66,7.9h0A10,10,0,0,1,6.82,6.06l.29.23A9.3,9.3,0,0,1,8.55,4.84l-.17-.19C8.6,4.47,8.83,4.3,9.06,4.15Z"/><ellipse class="cls-3" cx="5.66" cy="7.9" rx="0.08" ry="0.02" transform="translate(-3.92 9.56) rotate(-64.19)"/><ellipse class="cls-3" cx="6.81" cy="6.09" rx="0.09" ry="0.03" transform="translate(-2.18 7.69) rotate(-51.92)"/><ellipse class="cls-3" cx="9.05" cy="4.16" rx="0.08" ry="0.02" transform="translate(-0.77 5.82) rotate(-34.26)"/><ellipse class="cls-3" cx="7.09" cy="6.32" rx="0.08" ry="0.03" transform="translate(-2.26 7.98) rotate(-51.76)"/><ellipse class="cls-3" cx="8.58" cy="4.82" rx="0.09" ry="0.02" transform="translate(-1.13 6.44) rotate(-38.79)"/><ellipse class="cls-3" cx="8.42" cy="4.63" rx="0.06" ry="0.01" transform="translate(-1.03 6.4) rotate(-39.43)"/><path class="cls-3" d="M8,10.95h0c-.05.22-.1.44-.14.66l.32.06a8.07,8.07,0,0,0-.09,1.82l-.46,0A9,9,0,0,0,8,15.45H8a9,9,0,0,1-.33-2l.46,0a8.45,8.45,0,0,1,.09-1.77l-.31-.06C7.94,11.41,8,11.18,8,10.95Z"/><ellipse class="cls-3" cx="8.01" cy="15.45" rx="0.03" ry="0.08" transform="translate(-3.93 2.79) rotate(-15.92)"/><ellipse class="cls-3" cx="7.67" cy="13.51" rx="0.03" ry="0.08" transform="translate(-0.75 0.45) rotate(-3.22)"/><ellipse class="cls-3" cx="8.05" cy="10.96" rx="0.06" ry="0.03" transform="translate(-4.59 15.97) rotate(-75.32)"/><ellipse class="cls-3" cx="8.14" cy="13.49" rx="0.03" ry="0.07" transform="translate(-0.78 0.51) rotate(-3.39)"/><ellipse class="cls-3" cx="8.23" cy="11.68" rx="0.07" ry="0.03" transform="translate(-4.62 17.92) rotate(-80.73)"/><ellipse class="cls-3" cx="7.91" cy="11.62" rx="0.05" ry="0.02" transform="translate(-4.8 17.62) rotate(-81.01)"/><path class="cls-3" d="M12.41,9.1h0l-.17-.21a4.77,4.77,0,0,0-.44.38l-.54-.54A5.22,5.22,0,0,1,12,8.12l-.46-.63,0,0,.46.64a5.46,5.46,0,0,0-.75.61l.52.53a5,5,0,0,1,.45-.38Z"/><ellipse class="cls-3" cx="11.56" cy="7.49" rx="0.07" ry="0.03" transform="translate(-2.17 8.61) rotate(-37.61)"/><ellipse class="cls-3" cx="12.01" cy="8.12" rx="0.07" ry="0.03" transform="translate(-2.44 9.25) rotate(-38.53)"/><ellipse class="cls-3" cx="12.4" cy="9.1" rx="0.04" ry="0.03" transform="translate(-2.94 10.17) rotate(-40.27)"/><ellipse class="cls-3" cx="11.25" cy="8.73" rx="0.06" ry="0.03" transform="translate(-2.88 10.51) rotate(-44.97)"/><ellipse class="cls-3" cx="11.79" cy="9.27" rx="0.05" ry="0.03" transform="translate(-3.13 10.81) rotate(-44.06)"/><ellipse class="cls-3" cx="12.23" cy="8.89" rx="0.04" ry="0.02" transform="translate(-2.87 9.69) rotate(-39.04)"/><path class="cls-3" d="M3.85,17.83h0a13.92,13.92,0,0,1-.25-9.1l1.29.47a10.26,10.26,0,0,1,5.14-6l-.47-.83a13.78,13.78,0,0,1,3.75-1.26v0A13.58,13.58,0,0,0,9.69,2.31l.45.83A10.26,10.26,0,0,0,4.86,9.33L3.57,8.88A13.87,13.87,0,0,0,3.85,17.83Z"/><ellipse class="cls-3" cx="3.84" cy="17.83" rx="0.09" ry="0.37" transform="translate(-5.99 2.47) rotate(-20.47)"/><path class="cls-3" d="M3.67,8.5s0,.18,0,.38-.14.33-.19.32,0-.19,0-.38S3.63,8.48,3.67,8.5Z"/><ellipse class="cls-3" cx="13.24" cy="1.12" rx="0.38" ry="0.07" transform="translate(0.02 2.48) rotate(-10.7)"/><ellipse class="cls-3" cx="4.85" cy="9.31" rx="0.33" ry="0.09" transform="translate(-5.49 11.1) rotate(-72.28)"/><path class="cls-3" d="M10.46,3s-.11.15-.3.24-.34.14-.37.09.1-.16.28-.25S10.44,2.93,10.46,3Z"/><path class="cls-3" d="M9.9,2.2s-.08.1-.2.16-.23.09-.25.07.07-.1.19-.16S9.88,2.18,9.9,2.2Z"/><path class="cls-3" d="M11.23,5.19l-1.12-2,.06,0,1.11,2Z"/><path class="cls-3" d="M11.3,5.27c-.16.08-.3.11-.33.06s.08-.15.23-.23.31-.1.34-.05S11.46,5.19,11.3,5.27Z"/><path class="cls-3" d="M2.65,18.32h0a15.56,15.56,0,0,1-1-4.65,14.73,14.73,0,0,1-.37-1.58.26.26,0,0,0,0-.06,15.3,15.3,0,0,0,.37,1.6A15.64,15.64,0,0,0,2.65,18.32Z"/><path class="cls-3" d="M9.14,18.34l-.22.18A9,9,0,0,1,7.6,16h0a8.87,8.87,0,0,0,1.29,2.5l.21-.16Z"/><path class="cls-3" d="M4.18,17.71h0a13.82,13.82,0,0,1-.8-3.42l1.18-.11s0,.06,0,.09l-1.16.12A13.84,13.84,0,0,0,4.18,17.71Z"/><path class="cls-3" d="M9.34,12.31h0a6.72,6.72,0,0,1,.11-.71l.86.21c0-.13.06-.26.09-.38h0c0,.14-.07.28-.1.42l-.86-.21A5.77,5.77,0,0,0,9.34,12.31Z"/><path class="cls-3" d="M8.69,15.54l-.21.07,0-.06.18-.06a8.22,8.22,0,0,1-.39-2.77l.49,0s0,0,0,.06l-.46,0A8.28,8.28,0,0,0,8.69,15.54Z"/><path class="cls-3" d="M6.05,18.1H6a12,12,0,0,1-.9-2.58l1-.22a11,11,0,0,1-.2-1.22h0a11.47,11.47,0,0,0,.22,1.29l-1,.23A11.63,11.63,0,0,0,6.05,18.1Z"/><path class="cls-3" d="M7,15.57l-.2.05v0l.18-.05a10.21,10.21,0,0,1-.32-2l-.45,0v-.05l.47,0A10.27,10.27,0,0,0,7,15.57Z"/><path class="cls-3" d="M1,7.28H1c.16-.43.33-.85.52-1.26l.89.45A13.13,13.13,0,0,1,7.1,1V1A13.1,13.1,0,0,0,2.36,6.54L1.46,6.1C1.28,6.48,1.12,6.88,1,7.28Z"/><path class="cls-3" d="M9.9,1.67,9.21.29l.08,0L10,1.63a14.5,14.5,0,0,1,3.2-1l.09.47-.09,0L13.08.68A14.31,14.31,0,0,0,9.9,1.67Z"/><path class="cls-3" d="M9.08,6.19l0,0a8.43,8.43,0,0,1,1-.79l.56.79a8,8,0,0,0-.78.59l.28.31-.05,0-.29-.32a7,7,0,0,1,.77-.6L10,5.44A8.76,8.76,0,0,0,9.08,6.19Z"/><path class="cls-3" d="M11.59,5.89l-.37-.66.05,0,.35.64q.34-.17.71-.31l0,.11.24,0,0,0-.26,0,0-.1C12,5.67,11.82,5.78,11.59,5.89Z"/><path class="cls-3" d="M4.25,5.75h0a11.88,11.88,0,0,1,1.5-1.93l-.5-.48.05-.06.51.49A12,12,0,0,0,4.25,5.75Z"/><path class="cls-3" d="M6.28,8.82l-.71-.33,0-.05.69.32c.1-.23.21-.46.33-.69h0C6.5,8.32,6.38,8.57,6.28,8.82Z"/><path class="cls-3" d="M12.82,7.87v0a6.22,6.22,0,0,1,.93-.36l-.38-1.13a7.28,7.28,0,0,0-.83.3v0a8.18,8.18,0,0,1,.88-.32l.38,1.17A6.21,6.21,0,0,0,12.82,7.87Z"/><path class="cls-3" d="M10.95,12.57l-.27,0v0l.25,0a4.61,4.61,0,0,1,.78-2.18h0A4.61,4.61,0,0,0,10.95,12.57Z"/><path class="cls-3" d="M11.7,19l0,0c-.16-.11-.31-.22-.46-.34l.06-.07a6.49,6.49,0,0,1-1.12-1.17l0,0a6.66,6.66,0,0,0,1.16,1.21l-.06.07C11.42,18.82,11.56,18.92,11.7,19Z"/><path class="cls-3" d="M7.79,22.2l-.36.41A11.76,11.76,0,0,1,6,21.12l0,0a11.67,11.67,0,0,0,1.32,1.43l.33-.37-.38-.37.46-.48.06.06-.44.46Z"/></g><path class="cls-4" d="M7.43,8.35l-1.77-1A9.94,9.94,0,0,1,9,3.66L7.83,2,8,1.92,9.13,3.61A10,10,0,0,0,5.74,7.28l1.71,1A8.23,8.23,0,0,1,9.19,6l.51.55-.07.06-.5-.52A8.19,8.19,0,0,0,7.43,8.35Z"/><ellipse class="cls-4" cx="7.89" cy="1.96" rx="0.42" ry="0.08" transform="translate(0.28 4.82) rotate(-34.55)"/><path class="cls-4" d="M9.11,3.69c-.16.11-.31.17-.34.13s.08-.15.24-.26.32-.16.34-.12S9.27,3.59,9.11,3.69Z"/><ellipse class="cls-4" cx="9.66" cy="6.6" rx="0.21" ry="0.07" transform="translate(-1.91 8.34) rotate(-42.92)"/><ellipse class="cls-4" cx="5.69" cy="7.32" rx="0.32" ry="0.08" transform="translate(-3.49 8.63) rotate(-60.24)"/><ellipse class="cls-4" cx="7.45" cy="8.3" rx="0.26" ry="0.08" transform="translate(-3.44 10.73) rotate(-60.67)"/><ellipse class="cls-4" cx="9.15" cy="6.1" rx="0.17" ry="0.05" transform="translate(-1.66 8.11) rotate(-44.25)"/><path class="cls-4" d="M10.82,11.33,8.9,10.72a6.42,6.42,0,0,1,1.48-2.64L8.88,6.69l.07-.07L10.45,8A6.38,6.38,0,0,0,9,10.66l1.85.61a4.58,4.58,0,0,1,.65-1.35l.61.44,0,0L11.44,10A4.58,4.58,0,0,0,10.82,11.33Z"/><ellipse class="cls-4" cx="8.91" cy="6.66" rx="0.27" ry="0.08" transform="translate(-2.02 8.71) rotate(-47.41)"/><ellipse class="cls-4" cx="10.41" cy="8.05" rx="0.21" ry="0.08" transform="matrix(0.68, -0.73, 0.73, 0.68, -2.57, 10.21)"/><ellipse class="cls-4" cx="12.04" cy="10.37" rx="0.1" ry="0.07" transform="translate(-3.39 14.15) rotate(-54.5)"/><ellipse class="cls-4" cx="8.92" cy="10.68" rx="0.2" ry="0.08" transform="translate(-4.01 15.84) rotate(-71.88)"/><ellipse class="cls-4" cx="10.82" cy="11.3" rx="0.14" ry="0.08" transform="translate(-3.22 18.22) rotate(-72.48)"/><ellipse class="cls-4" cx="11.44" cy="9.97" rx="0.09" ry="0.05" transform="translate(-3.26 13.75) rotate(-55.47)"/><path class="cls-4" d="M7.7,12.89h-2a10.2,10.2,0,0,1,.78-4.2L4.64,7.85l.05-.12,1.87.88a10.14,10.14,0,0,0-.83,4.18H7.67A8.36,8.36,0,0,1,8,10.45l.71.22,0,.08L8,10.54A8.27,8.27,0,0,0,7.7,12.89Z"/><ellipse class="cls-4" cx="4.67" cy="7.8" rx="0.34" ry="0.08" transform="translate(-4.37 8.7) rotate(-64.79)"/><ellipse class="cls-4" cx="6.52" cy="8.65" rx="0.28" ry="0.08" transform="translate(-4.09 10.84) rotate(-64.65)"/><ellipse class="cls-4" cx="8.67" cy="10.71" rx="0.17" ry="0.07" transform="translate(-4.09 15.91) rotate(-73.18)"/><path class="cls-4" d="M5.79,12.85c0,.15,0,.28-.07.28s-.09-.12-.09-.28,0-.29.08-.29S5.79,12.7,5.79,12.85Z"/><ellipse class="cls-4" cx="7.7" cy="12.85" rx="0.08" ry="0.23" transform="translate(-0.15 0.09) rotate(-0.68)"/><ellipse class="cls-4" cx="7.98" cy="10.53" rx="0.14" ry="0.05" transform="translate(-4.4 15.14) rotate(-73.29)"/><path class="cls-4" d="M4.48,20.17l0,0a14,14,0,0,1-1.4-3l-.8.28a15.3,15.3,0,0,1,.1-9.86L3.51,8A11.64,11.64,0,0,1,10,1.21v0A11.62,11.62,0,0,0,3.49,8.16L2.34,7.71a15.26,15.26,0,0,0-.1,9.55L3,17A14.18,14.18,0,0,0,4.48,20.17Z"/><path class="cls-4" d="M9.61,1.4s.14-.15.36-.25.42-.13.44-.09-.15.14-.37.24S9.63,1.44,9.61,1.4Z"/><path class="cls-4" d="M3.4,8.4s0-.19,0-.38.17-.33.21-.31,0,.19-.06.38S3.44,8.41,3.4,8.4Z"/><path class="cls-4" d="M4.61,20.4s-.13-.08-.22-.22-.13-.29-.1-.31.13.09.21.23S4.64,20.38,4.61,20.4Z"/><ellipse class="cls-4" cx="2.37" cy="7.59" rx="0.4" ry="0.08" transform="translate(-5.57 7.23) rotate(-70.06)"/><ellipse class="cls-4" cx="2.27" cy="17.39" rx="0.08" ry="0.41" transform="translate(-5.23 1.54) rotate(-17.87)"/><ellipse class="cls-4" cx="3.06" cy="17.12" rx="0.05" ry="0.24" transform="translate(-5.12 1.77) rotate(-17.91)"/><path class="cls-4" d="M9.86,16.62l0,0a7.23,7.23,0,0,1-.72-1.57l-.8.28A8.31,8.31,0,0,1,8.37,10l1.15.46A5.84,5.84,0,0,1,12.77,7V7a5.82,5.82,0,0,0-3.26,3.46l-1.15-.45a8.28,8.28,0,0,0-.05,5.19l.8-.27A7.41,7.41,0,0,0,9.86,16.62Z"/><path class="cls-4" d="M12.58,7.12s0-.11.16-.16.22-.05.24,0-.06.11-.17.16S12.6,7.16,12.58,7.12Z"/><ellipse class="cls-4" cx="9.53" cy="10.45" rx="0.18" ry="0.08" transform="translate(-3.54 15.85) rotate(-70.08)"/><ellipse class="cls-4" cx="9.84" cy="16.6" rx="0.07" ry="0.16" transform="translate(-7.25 7.63) rotate(-31.65)"/><ellipse class="cls-4" cx="8.38" cy="9.99" rx="0.22" ry="0.08" transform="matrix(0.34, -0.94, 0.94, 0.34, -3.86, 14.47)"/><path class="cls-4" d="M8.4,15.53s-.11-.07-.15-.18,0-.23,0-.24.1.07.14.18S8.44,15.52,8.4,15.53Z"/><ellipse class="cls-4" cx="9.12" cy="15.05" rx="0.05" ry="0.12" transform="translate(-4.23 3.58) rotate(-18.13)"/><path class="cls-4" d="M11,21v0a8.51,8.51,0,0,1-1.88-1.42l-.59.62a10.68,10.68,0,0,1-3-6.4l1.22-.12A9,9,0,0,1,8.23,7.66l0,0A9,9,0,0,0,6.81,13.8l-1.21.13a10.65,10.65,0,0,0,2.86,6.19l.6-.61A8.29,8.29,0,0,0,11,21Z"/><ellipse class="cls-4" cx="8.24" cy="7.67" rx="0.26" ry="0.08" transform="translate(-2.76 10.06) rotate(-55.17)"/><ellipse class="cls-4" cx="6.81" cy="13.72" rx="0.08" ry="0.26" transform="translate(-1.43 0.81) rotate(-6.15)"/><ellipse class="cls-4" cx="10.97" cy="21" rx="0.07" ry="0.22" transform="translate(-12.71 20.34) rotate(-60.84)"/><ellipse class="cls-4" cx="5.58" cy="13.85" rx="0.08" ry="0.29" transform="translate(-1.47 0.69) rotate(-6.25)"/><ellipse class="cls-4" cx="8.51" cy="20.2" rx="0.08" ry="0.29" transform="translate(-11.76 11.86) rotate(-44.79)"/><ellipse class="cls-4" cx="9.1" cy="19.59" rx="0.05" ry="0.17" transform="translate(-11.16 12.09) rotate(-44.78)"/><path class="cls-4" d="M12.26,16.48l0,0a4.83,4.83,0,0,1-.77-1l-.71.47a6.31,6.31,0,0,1-.88-3.91l1.22.16a4.21,4.21,0,0,1,1.45-2.82l0,0a4.19,4.19,0,0,0-1.45,2.86L9.9,12.17a6.27,6.27,0,0,0,.84,3.78l.72-.46A4.77,4.77,0,0,0,12.26,16.48Z"/><path class="cls-4" d="M12.45,9.54s0-.1,0-.15.13-.06.16,0,0,.1-.05.15S12.48,9.57,12.45,9.54Z"/><ellipse class="cls-4" cx="11.11" cy="12.27" rx="0.13" ry="0.08" transform="translate(-2.23 22.07) rotate(-84.15)"/><ellipse class="cls-4" cx="12.23" cy="16.48" rx="0.07" ry="0.11" transform="translate(-8.12 13.85) rotate(-46.05)"/><ellipse class="cls-4" cx="9.89" cy="12.11" rx="0.16" ry="0.08" transform="translate(-3.21 20.65) rotate(-83.86)"/><path class="cls-4" d="M10.85,16.13s-.11,0-.15-.09-.05-.16,0-.19.1,0,.15.1S10.89,16.11,10.85,16.13Z"/><ellipse class="cls-4" cx="11.47" cy="15.53" rx="0.05" ry="0.09" transform="translate(-6.41 8.25) rotate(-31.4)"/><path class="cls-4" d="M16.46,19.33v0a7.41,7.41,0,0,1-2,0l-.15.84A6.74,6.74,0,0,1,9.67,17.5l1-.77a6.78,6.78,0,0,1-1.29-4.19h0a6.78,6.78,0,0,0,1.32,4.23l-1,.78a6.7,6.7,0,0,0,4.45,2.64l.16-.84A7.24,7.24,0,0,0,16.46,19.33Z"/><ellipse class="cls-4" cx="9.37" cy="12.54" rx="0.18" ry="0.08" transform="translate(-3.45 21.52) rotate(-88.28)"/><ellipse class="cls-4" cx="10.65" cy="16.73" rx="0.08" ry="0.18" transform="translate(-7.85 9.58) rotate(-36.37)"/><ellipse class="cls-4" cx="16.43" cy="19.35" rx="0.2" ry="0.06" transform="translate(-2.63 2.59) rotate(-8.34)"/><ellipse class="cls-4" cx="9.69" cy="17.5" rx="0.08" ry="0.21" transform="translate(-8.57 9.33) rotate(-36.92)"/><ellipse class="cls-4" cx="14.26" cy="20.21" rx="0.08" ry="0.25" transform="translate(-7.74 31.51) rotate(-81.99)"/><ellipse class="cls-4" cx="14.41" cy="19.38" rx="0.05" ry="0.13" transform="translate(-6.69 31.12) rotate(-82.48)"/><path class="cls-4" d="M9.45,19.2h0a8.12,8.12,0,0,1-.66-.75l-.3.25a9.48,9.48,0,0,1-1.4-2.55L7.6,16A9.6,9.6,0,0,1,7,13.24H7A9.63,9.63,0,0,0,7.62,16l-.51.2a9.43,9.43,0,0,0,1.36,2.47l.3-.25A8.81,8.81,0,0,0,9.45,19.2Z"/><ellipse class="cls-4" cx="7.04" cy="13.24" rx="0.04" ry="0.11" transform="translate(-0.79 0.45) rotate(-3.49)"/><ellipse class="cls-4" cx="7.61" cy="15.96" rx="0.04" ry="0.11" transform="translate(-5.05 3.62) rotate(-20.25)"/><ellipse class="cls-4" cx="9.43" cy="19.2" rx="0.03" ry="0.09" transform="translate(-10.76 12.14) rotate(-44.56)"/><ellipse class="cls-4" cx="7.09" cy="16.16" rx="0.04" ry="0.12" transform="translate(-5.12 3.42) rotate(-20.11)"/><ellipse class="cls-4" cx="8.49" cy="18.7" rx="0.04" ry="0.12" transform="translate(-9.71 9.19) rotate(-38)"/><ellipse class="cls-4" cx="8.78" cy="18.46" rx="0.02" ry="0.07" transform="translate(-9.42 9.17) rotate(-37.52)"/><path class="cls-4" d="M10.45,16h0a6.78,6.78,0,0,0,.37.57l.3-.24a5.22,5.22,0,0,0,1.28,1.24l-.31.46a5.5,5.5,0,0,0,1.9.82h0A5.54,5.54,0,0,1,12.06,18l.32-.47a5.26,5.26,0,0,1-1.24-1.21l-.3.24A6,6,0,0,1,10.45,16Z"/><ellipse class="cls-4" cx="14" cy="18.82" rx="0.04" ry="0.09" transform="translate(-7.36 28.53) rotate(-77.82)"/><ellipse class="cls-4" cx="12.09" cy="18" rx="0.04" ry="0.08" transform="translate(-9.59 17.96) rotate(-56)"/><ellipse class="cls-4" cx="10.46" cy="15.96" rx="0.03" ry="0.06" transform="translate(-6.35 6.93) rotate(-28.53)"/><ellipse class="cls-4" cx="12.4" cy="17.53" rx="0.04" ry="0.07" transform="translate(-9.07 17.76) rotate(-55.34)"/><ellipse class="cls-4" cx="11.13" cy="16.29" rx="0.04" ry="0.07" transform="translate(-7.44 9.64) rotate(-35.95)"/><ellipse class="cls-4" cx="10.83" cy="16.53" rx="0.02" ry="0.05" transform="translate(-7.77 9.87) rotate(-37.09)"/><path class="cls-4" d="M6.23,4l0,0A11.25,11.25,0,0,0,4.81,5.86l.51.33A11.9,11.9,0,0,0,3.56,12l-.87-.06a14.36,14.36,0,0,0,1.19,6.46h0a14.44,14.44,0,0,1-1.19-6.57l.87.07A12,12,0,0,1,5.26,6.26l-.52-.33A11.29,11.29,0,0,1,6.23,4Z"/><ellipse class="cls-4" cx="3.87" cy="18.38" rx="0.06" ry="0.26" transform="translate(-7.12 3.15) rotate(-23.92)"/><ellipse class="cls-4" cx="2.67" cy="11.9" rx="0.27" ry="0.06" transform="translate(-9.35 13.93) rotate(-86.95)"/><ellipse class="cls-4" cx="6.22" cy="4.05" rx="0.22" ry="0.05" transform="translate(-1.01 5.73) rotate(-46.22)"/><ellipse class="cls-4" cx="3.54" cy="11.96" rx="0.25" ry="0.06" transform="translate(-8.58 14.91) rotate(-87.18)"/><ellipse class="cls-4" cx="5.31" cy="6.2" rx="0.25" ry="0.06" transform="translate(-2.77 7.41) rotate(-57.93)"/><ellipse class="cls-4" cx="4.8" cy="5.87" rx="0.16" ry="0.04" transform="matrix(0.53, -0.85, 0.85, 0.53, -2.73, 6.8)"/><path class="cls-4" d="M7.36,17l0,.06-.45.23A9.92,9.92,0,0,0,8,19.12L6.94,20a11.47,11.47,0,0,1-1.69-3l-1.33.54,0-.09,1.35-.54A11.56,11.56,0,0,0,6.9,20L8,19.07a10,10,0,0,1-1.09-1.78Z"/><ellipse class="cls-4" cx="3.88" cy="17.49" rx="0.06" ry="0.26" transform="translate(-6.27 2.73) rotate(-21.99)"/><ellipse class="cls-4" cx="5.24" cy="16.98" rx="0.06" ry="0.23" transform="translate(-5.72 2.99) rotate(-20.94)"/><path class="cls-4" d="M7.41,17.06c0,.08,0,.15,0,.16s-.07,0-.11-.12,0-.15,0-.16S7.37,17,7.41,17.06Z"/><ellipse class="cls-4" cx="6.91" cy="20" rx="0.06" ry="0.23" transform="translate(-11.22 9.09) rotate(-39.88)"/><ellipse class="cls-4" cx="8.01" cy="19.09" rx="0.06" ry="0.2" transform="translate(-10.25 9.35) rotate(-39.15)"/><ellipse class="cls-4" cx="6.93" cy="17.34" rx="0.03" ry="0.12" transform="translate(-7.4 5.36) rotate(-28.32)"/><path class="cls-4" d="M12,18.13l0,0-.28.43a6.14,6.14,0,0,0,1.35.68l-.51,1.35a7.37,7.37,0,0,1-2.27-1.3l-.92,1.13-.06-.05.94-1.14a7.23,7.23,0,0,0,2.25,1.32l.51-1.3a6,6,0,0,1-1.35-.69Z"/><ellipse class="cls-4" cx="9.36" cy="20.41" rx="0.06" ry="0.2" transform="translate(-12.37 14.77) rotate(-50.81)"/><ellipse class="cls-4" cx="10.28" cy="19.28" rx="0.06" ry="0.17" transform="translate(-11.2 15.3) rotate(-51.43)"/><ellipse class="cls-4" cx="12" cy="18.14" rx="0.05" ry="0.11" transform="translate(-9.75 18.47) rotate(-57.36)"/><ellipse class="cls-4" cx="12.55" cy="20.59" rx="0.06" ry="0.18" transform="translate(-11.13 25.15) rotate(-69.53)"/><ellipse class="cls-4" cx="13.07" cy="19.25" rx="0.06" ry="0.15" transform="translate(-9.64 24.32) rotate(-68.41)"/><ellipse class="cls-4" cx="11.74" cy="18.58" rx="0.04" ry="0.09" transform="translate(-10.24 18.45) rotate(-57.38)"/><path class="cls-4" d="M13.05,8.11l0,0-.24-.45a5.36,5.36,0,0,0-1.15.75l-1-1.08A7,7,0,0,1,12.85,6.1l-.53-1.33.08,0,.53,1.36a7,7,0,0,0-2.2,1.23l.92,1.05a5.43,5.43,0,0,1,1.17-.75Z"/><ellipse class="cls-4" cx="12.35" cy="4.75" rx="0.22" ry="0.06" transform="translate(-0.88 4.88) rotate(-21.59)"/><ellipse class="cls-4" cx="12.88" cy="6.09" rx="0.18" ry="0.06" transform="translate(-1.32 4.91) rotate(-20.57)"/><ellipse class="cls-4" cx="13.03" cy="8.11" rx="0.1" ry="0.05" transform="translate(-2.24 6.55) rotate(-26.06)"/><ellipse class="cls-4" cx="10.64" cy="7.37" rx="0.16" ry="0.06" transform="translate(-2.23 8.74) rotate(-40.77)"/><ellipse class="cls-4" cx="11.63" cy="8.41" rx="0.13" ry="0.06" transform="translate(-2.67 9.71) rotate(-41.05)"/><ellipse class="cls-4" cx="12.78" cy="7.67" rx="0.09" ry="0.04" transform="translate(-2.11 7.02) rotate(-28.46)"/><path class="cls-4" d="M3.57,9.27v0l-.21-.06c-.1.37-.18.75-.24,1.14l-.6-.12a13.54,13.54,0,0,1,.4-1.71l-.58-.2v0l.59.2a14.22,14.22,0,0,0-.41,1.71l.58.12c.07-.38.15-.76.25-1.13Z"/><ellipse class="cls-4" cx="2.33" cy="8.33" rx="0.12" ry="0.03" transform="translate(-6.31 8.07) rotate(-72.59)"/><ellipse class="cls-4" cx="2.92" cy="8.53" rx="0.12" ry="0.03" transform="translate(-6.09 8.91) rotate(-73.53)"/><ellipse class="cls-4" cx="3.56" cy="9.29" rx="0.09" ry="0.02" transform="translate(-6.38 9.73) rotate(-71.57)"/><ellipse class="cls-4" cx="2.52" cy="10.24" rx="0.12" ry="0.02" transform="translate(-8 11.04) rotate(-80.56)"/><ellipse class="cls-4" cx="3.11" cy="10.36" rx="0.11" ry="0.02" transform="translate(-7.69 11.03) rotate(-76.84)"/><ellipse class="cls-4" cx="3.35" cy="9.24" rx="0.07" ry="0.02" transform="translate(-6.45 9.95) rotate(-74.18)"/><path class="cls-4" d="M5.7,11.64s0,0,0,0l-.21,0c0,.31,0,.62,0,.93l-.6,0a11.77,11.77,0,0,1,.09-1.42l-.6-.1a.22.22,0,0,1,0,0l.61.1a11.51,11.51,0,0,0-.1,1.42l.59,0c0-.31,0-.62,0-.93Z"/><ellipse class="cls-4" cx="4.32" cy="11.02" rx="0.1" ry="0.03" transform="translate(-7.09 14.15) rotate(-83.94)"/><ellipse class="cls-4" cx="4.93" cy="11.12" rx="0.09" ry="0.02" transform="translate(-6.69 14.7) rotate(-83.24)"/><ellipse class="cls-4" cx="5.69" cy="11.65" rx="0.07" ry="0.02" transform="translate(-6.65 15.63) rotate(-81.83)"/><ellipse class="cls-4" cx="4.83" cy="12.54" rx="0.09" ry="0.02" transform="translate(-7.9 16.86) rotate(-87.68)"/><ellipse class="cls-4" cx="5.43" cy="12.56" rx="0.09" ry="0.02" transform="matrix(0.04, -1, 1, 0.04, -7.34, 17.46)"/><ellipse class="cls-4" cx="5.48" cy="11.64" rx="0.06" ry="0.02" transform="translate(-6.73 15.68) rotate(-83.09)"/><path class="cls-4" d="M9.6,9l0,0-.21-.14A7,7,0,0,0,9,9.54l-.63-.32a7.32,7.32,0,0,1,.61-1l-.58-.41,0,0L9,8.15a7.14,7.14,0,0,0-.61,1L9,9.51a6.19,6.19,0,0,1,.37-.67Z"/><ellipse class="cls-4" cx="8.42" cy="7.75" rx="0.09" ry="0.03" transform="translate(-2.84 9.75) rotate(-52.72)"/><ellipse class="cls-4" cx="9" cy="8.16" rx="0.08" ry="0.03" transform="translate(-2.82 10.96) rotate(-55.5)"/><ellipse class="cls-4" cx="9.59" cy="8.99" rx="0.06" ry="0.02" transform="translate(-3.16 12.19) rotate(-57.26)"/><ellipse class="cls-4" cx="8.39" cy="9.21" rx="0.08" ry="0.03" transform="translate(-3.7 12.21) rotate(-61.59)"/><ellipse class="cls-4" cx="9.01" cy="9.52" rx="0.07" ry="0.03" transform="translate(-3.45 13.6) rotate(-64.69)"/><ellipse class="cls-4" cx="9.38" cy="8.86" rx="0.05" ry="0.02" transform="translate(-3.37 10.83) rotate(-52.17)"/><path class="cls-4" d="M4.41,16.69h0c-.11-.32-.2-.65-.28-1l-.28.07a13.57,13.57,0,0,1-.37-2.93h.42A12.53,12.53,0,0,1,4.16,10h0a12.51,12.51,0,0,0-.27,2.89H3.48a13.57,13.57,0,0,0,.36,2.83l.28-.07C4.21,16,4.3,16.35,4.41,16.69Z"/><ellipse class="cls-4" cx="4.17" cy="10.01" rx="0.11" ry="0.03" transform="translate(-6.48 12.04) rotate(-78.21)"/><ellipse class="cls-4" cx="3.89" cy="12.86" rx="0.03" ry="0.11" transform="matrix(1, -0.02, 0.02, 1, -0.22, 0.07)"/><ellipse class="cls-4" cx="4.4" cy="16.68" rx="0.02" ry="0.1" transform="translate(-4.93 2.17) rotate(-17.96)"/><ellipse class="cls-4" cx="3.48" cy="12.86" rx="0.03" ry="0.12" transform="translate(-0.05 0.01) rotate(-0.24)"/><ellipse class="cls-4" cx="3.85" cy="15.77" rx="0.03" ry="0.12" transform="translate(-3.42 1.26) rotate(-12.9)"/><ellipse class="cls-4" cx="4.12" cy="15.7" rx="0.02" ry="0.07" transform="translate(-3.5 1.37) rotate(-13.29)"/><path class="cls-4" d="M7.57,15h0c.06.23.13.46.21.69l.27-.1a8.67,8.67,0,0,0,.84,1.75l-.35.24A8.19,8.19,0,0,0,9.86,19.2h0A8.08,8.08,0,0,1,8.53,17.6l.35-.24a8.61,8.61,0,0,1-.82-1.7l-.27.1C7.7,15.53,7.63,15.29,7.57,15Z"/><ellipse class="cls-4" cx="9.85" cy="19.21" rx="0.03" ry="0.08" transform="translate(-10.93 13.38) rotate(-47.18)"/><ellipse class="cls-4" cx="8.55" cy="17.62" rx="0.03" ry="0.08" transform="translate(-8.09 7.29) rotate(-32.29)"/><ellipse class="cls-4" cx="7.57" cy="15.05" rx="0.02" ry="0.07" transform="translate(-3.42 2.29) rotate(-14.04)"/><ellipse class="cls-4" cx="8.89" cy="17.38" rx="0.03" ry="0.08" transform="translate(-8.08 7.74) rotate(-33.3)"/><ellipse class="cls-4" cx="8.05" cy="15.64" rx="0.03" ry="0.08" transform="translate(-4.74 3.57) rotate(-19.44)"/><ellipse class="cls-4" cx="7.79" cy="15.74" rx="0.02" ry="0.05" transform="translate(-4.58 3.27) rotate(-18.43)"/><path class="cls-4" d="M11.58,8.61h0l-.29.28.17.16a4.68,4.68,0,0,0-.64.85l-.28-.18a5.29,5.29,0,0,0-.47,1h0a5.5,5.5,0,0,1,.48-1l.28.18a4.81,4.81,0,0,1,.62-.82l-.17-.16Z"/><ellipse class="cls-4" cx="10.07" cy="10.73" rx="0.04" ry="0.02" transform="translate(-3.4 16.65) rotate(-70.56)"/><ellipse class="cls-4" cx="10.55" cy="9.72" rx="0.04" ry="0.02" transform="translate(-3.32 13.39) rotate(-57.5)"/><ellipse class="cls-4" cx="11.58" cy="8.62" rx="0.04" ry="0.02" transform="translate(-2.81 9.79) rotate(-41.3)"/><ellipse class="cls-4" cx="10.83" cy="9.89" rx="0.04" ry="0.02" transform="translate(-3.22 14.12) rotate(-59.16)"/><ellipse class="cls-4" cx="11.46" cy="9.05" rx="0.04" ry="0.02" transform="translate(-2.96 11.34) rotate(-47.31)"/><ellipse class="cls-4" cx="11.3" cy="8.9" rx="0.03" ry="0.01" transform="translate(-2.96 10.77) rotate(-45.72)"/><path class="cls-4" d="M9.65,4.77h0c-.2.14-.39.28-.58.43l.15.17A8.62,8.62,0,0,0,7.88,6.73l-.26-.21a9.08,9.08,0,0,0-1,1.63h0a9.08,9.08,0,0,1,1-1.65l.26.21a8.52,8.52,0,0,1,1.3-1.31L9,5.22C9.24,5.06,9.44,4.91,9.65,4.77Z"/><ellipse class="cls-4" cx="6.59" cy="8.15" rx="0.08" ry="0.02" transform="translate(-3.61 10.58) rotate(-64.44)"/><ellipse class="cls-4" cx="7.62" cy="6.52" rx="0.08" ry="0.02" transform="translate(-2.22 8.43) rotate(-51.55)"/><ellipse class="cls-4" cx="9.64" cy="4.78" rx="0.07" ry="0.02" transform="translate(-1.02 6.27) rotate(-34.32)"/><ellipse class="cls-4" cx="7.88" cy="6.72" rx="0.08" ry="0.02" transform="translate(-2.3 8.66) rotate(-51.26)"/><ellipse class="cls-4" cx="9.21" cy="5.38" rx="0.08" ry="0.02" transform="translate(-1.35 6.88) rotate(-38.36)"/><ellipse class="cls-4" cx="9.07" cy="5.21" rx="0.05" ry="0.01" transform="translate(-1.22 7.1) rotate(-40.28)"/><path class="cls-4" d="M8.73,10.89h0c0,.2-.09.39-.12.59l.28.06a7.36,7.36,0,0,0-.08,1.64l-.42,0a8,8,0,0,0,.3,1.73h0a8.07,8.07,0,0,1-.3-1.76l.42,0a7.36,7.36,0,0,1,.08-1.59l-.28-.05C8.64,11.3,8.68,11.1,8.73,10.89Z"/><ellipse class="cls-4" cx="8.7" cy="14.94" rx="0.03" ry="0.07" transform="translate(-3.65 2.84) rotate(-15.36)"/><ellipse class="cls-4" cx="8.4" cy="13.2" rx="0.03" ry="0.07" transform="translate(-0.81 0.55) rotate(-3.58)"/><ellipse class="cls-4" cx="8.74" cy="10.9" rx="0.06" ry="0.02" transform="translate(-3.93 16.79) rotate(-76.24)"/><ellipse class="cls-4" cx="8.82" cy="13.18" rx="0.03" ry="0.07" transform="translate(-0.66 0.47) rotate(-2.93)"/><ellipse class="cls-4" cx="8.9" cy="11.55" rx="0.07" ry="0.03" transform="translate(-4 18.35) rotate(-80.17)"/><ellipse class="cls-4" cx="8.62" cy="11.49" rx="0.04" ry="0.02" transform="translate(-4.05 18.27) rotate(-81.3)"/><path class="cls-4" d="M12.67,9.23h0L12.5,9a4.69,4.69,0,0,0-.4.34l-.49-.49a4.74,4.74,0,0,1,.68-.55l-.41-.56h0l.41.57a4.92,4.92,0,0,0-.68.55l.47.48a4.24,4.24,0,0,1,.4-.34Z"/><ellipse class="cls-4" cx="11.89" cy="7.78" rx="0.07" ry="0.03" transform="translate(-2.28 8.79) rotate(-37.28)"/><ellipse class="cls-4" cx="12.3" cy="8.34" rx="0.06" ry="0.03" transform="translate(-2.54 9.13) rotate(-37.18)"/><ellipse class="cls-4" cx="12.66" cy="9.23" rx="0.04" ry="0.02" transform="translate(-3 9.57) rotate(-37.34)"/><ellipse class="cls-4" cx="11.62" cy="8.89" rx="0.06" ry="0.03" transform="translate(-2.82 11.25) rotate(-46.71)"/><ellipse class="cls-4" cx="12.11" cy="9.38" rx="0.05" ry="0.03" transform="translate(-3.11 11.12) rotate(-44.31)"/><ellipse class="cls-4" cx="12.5" cy="9.04" rx="0.03" ry="0.02" transform="translate(-2.88 10.29) rotate(-40.51)"/><path class="cls-4" d="M5,17.08h0A12.53,12.53,0,0,1,4.71,8.9l1.16.42A9.24,9.24,0,0,1,10.5,3.89l-.42-.74A12.36,12.36,0,0,1,13.46,2v0a12.16,12.16,0,0,0-3.25,1.07l.41.75A9.22,9.22,0,0,0,5.87,9.44L4.7,9A12.5,12.5,0,0,0,5,17.08Z"/><ellipse class="cls-4" cx="4.95" cy="17.09" rx="0.08" ry="0.33" transform="translate(-5.65 2.8) rotate(-20.41)"/><path class="cls-4" d="M4.8,8.69s0,.17,0,.34-.13.3-.17.29,0-.17,0-.34S4.76,8.67,4.8,8.69Z"/><ellipse class="cls-4" cx="13.41" cy="2.05" rx="0.34" ry="0.07" transform="translate(-0.15 2.51) rotate(-10.65)"/><path class="cls-4" d="M6,9.14s0,.15,0,.31-.12.27-.16.25,0-.15,0-.31S5.91,9.12,6,9.14Z"/><ellipse class="cls-4" cx="10.6" cy="3.86" rx="0.33" ry="0.08" transform="translate(-0.6 5.17) rotate(-26.68)"/><ellipse class="cls-4" cx="10.2" cy="3.12" rx="0.23" ry="0.05" transform="translate(-0.31 4.92) rotate(-26.73)"/><path class="cls-4" d="M11.6,5.71l-1-1.82.06,0,1,1.82Z"/><path class="cls-4" d="M11.67,5.78c-.14.07-.27.1-.3.06s.07-.14.21-.21.28-.09.31,0S11.81,5.71,11.67,5.78Z"/><path class="cls-4" d="M3.88,17.53h0A14.07,14.07,0,0,1,3,13.34a13.43,13.43,0,0,1-.33-1.42v-.05A13.52,13.52,0,0,0,3,13.32,14,14,0,0,0,3.88,17.53Z"/><path class="cls-4" d="M9.72,17.55l-.2.16a8.07,8.07,0,0,1-1.19-2.29h0a7.92,7.92,0,0,0,1.17,2.24l.18-.14Z"/><path class="cls-4" d="M5.25,17h0a12.35,12.35,0,0,1-.72-3.08l1.06-.1s0,.05,0,.08l-1,.11A12.37,12.37,0,0,0,5.25,17Z"/><path class="cls-4" d="M9.9,12.11h0a6.08,6.08,0,0,1,.1-.64l.78.19c0-.12.05-.23.08-.34h0c0,.12-.07.25-.09.38L10,11.52A5.68,5.68,0,0,0,9.9,12.11Z"/><path class="cls-4" d="M9.31,15l-.19.07,0-.05L9.28,15a7.37,7.37,0,0,1-.35-2.49l.44,0s0,0,0,.05l-.42,0A7.36,7.36,0,0,0,9.31,15Z"/><path class="cls-4" d="M6.94,17.33h0A10.71,10.71,0,0,1,6.11,15l.88-.2a9.8,9.8,0,0,1-.18-1.09h0A9.92,9.92,0,0,0,7,14.88l-.88.21A10.56,10.56,0,0,0,6.94,17.33Z"/><path class="cls-4" d="M7.76,15l-.18,0v0l.16,0a9,9,0,0,1-.29-1.79l-.41,0s0,0,0,0l.42,0A9.07,9.07,0,0,0,7.76,15Z"/><path class="cls-4" d="M2.37,7.59h0q.21-.58.47-1.14l.8.4A11.8,11.8,0,0,1,7.89,2h0a11.79,11.79,0,0,0-4.28,5l-.8-.4C2.65,6.87,2.5,7.23,2.37,7.59Z"/><path class="cls-4" d="M10.4,2.54,9.78,1.3l.07,0,.61,1.23a13,13,0,0,1,2.88-.89l.08.43-.08,0-.08-.41A12.93,12.93,0,0,0,10.4,2.54Z"/><path class="cls-4" d="M9.67,6.61l0,0a7.58,7.58,0,0,1,.92-.72l.5.71a7,7,0,0,0-.7.53l.25.27,0,0-.26-.29A6.06,6.06,0,0,1,11,6.6l-.48-.67A7.65,7.65,0,0,0,9.67,6.61Z"/><path class="cls-4" d="M11.92,6.34l-.33-.59,0,0,.32.58c.2-.1.42-.19.64-.28l0,.1.22,0,0,0-.24,0,0-.09C12.34,6.14,12.13,6.24,11.92,6.34Z"/><path class="cls-4" d="M5.32,6.21h0A10.74,10.74,0,0,1,6.66,4.47L6.21,4l0-.05.46.44A11,11,0,0,0,5.32,6.21Z"/><path class="cls-4" d="M7.14,9l-.64-.29,0,0,.62.29c.09-.21.19-.42.3-.62h0C7.34,8.53,7.24,8.75,7.14,9Z"/><path class="cls-4" d="M13,8.12h0a5.65,5.65,0,0,1,.84-.32l-.34-1a6.49,6.49,0,0,0-.75.27V7a7.57,7.57,0,0,1,.79-.28l.34,1.05A5.62,5.62,0,0,0,13,8.12Z"/><path class="cls-4" d="M11.34,12.35l-.24,0v0l.23,0a4.12,4.12,0,0,1,.7-2h0A4.13,4.13,0,0,0,11.34,12.35Z"/><path class="cls-4" d="M12,18.15v0a4.87,4.87,0,0,1-.41-.3l.05-.06a5.8,5.8,0,0,1-1-1.06h0a6,6,0,0,0,1,1.08l-.05.07Z"/><path class="cls-4" d="M8.51,21l-.32.37A10.72,10.72,0,0,1,6.93,20h0a10.39,10.39,0,0,0,1.19,1.28L8.42,21l-.34-.33.41-.43.05.06-.39.42Z"/><ellipse class="cls-5" cx="15.94" cy="21.79" rx="6.43" ry="0.93"/></g></g></g></svg>